<?xml version="1.0" encoding="utf-8"?>
<!-- Generator: Adobe Illustrator 16.0.0, SVG Export Plug-In . SVG Version: 6.00 Build 0)  -->
<!DOCTYPE svg PUBLIC "-//W3C//DTD SVG 1.1//EN" "http://www.w3.org/Graphics/SVG/1.1/DTD/svg11.dtd">
<svg version="1.1" id="Layer_1" xmlns="http://www.w3.org/2000/svg" xmlns:xlink="http://www.w3.org/1999/xlink" x="0px" y="0px"
	 width="512px" height="512px" viewBox="0 0 512 512" enable-background="new 0 0 512 512" xml:space="preserve">
<path d="M502.925,404.575v-312c0-10.77-8.73-19.5-19.5-19.5H48.575c-10.77,0-19.5,8.73-19.5,19.5v312c0,10.771,8.73,19.5,19.5,19.5
	h434.85C494.195,424.075,502.925,415.345,502.925,404.575z M38.075,253.075c0-9.941,8.059-18,18-18s18,8.059,18,18s-8.059,18-18,18
	S38.075,263.016,38.075,253.075z M88.925,388.075v-279h378v279H88.925z"/>
</svg>
