<svg xmlns="http://www.w3.org/2000/svg" xmlns:xlink="http://www.w3.org/1999/xlink" viewBox="0 0 21.4 37.55"><defs><style>.cls-1{isolation:isolate;}.cls-2{fill:#939698;}.cls-3{fill:#575a5b;}.cls-4{fill:#626467;}.cls-5{fill:url(#linear-gradient);}.cls-6{fill:#3a3c3f;}.cls-7{fill:#b3b5b8;opacity:0.6;}.cls-10,.cls-19,.cls-29,.cls-32,.cls-36,.cls-38,.cls-7{mix-blend-mode:multiply;}.cls-8{fill:url(#linear-gradient-2);}.cls-10,.cls-9{fill:#9d9fa1;}.cls-10{opacity:0.5;}.cls-11{fill:#c2c4c6;}.cls-12{fill:#3e4042;}.cls-13{fill:#76797b;}.cls-14,.cls-28,.cls-30{fill:#fff;}.cls-14,.cls-21{opacity:0.4;}.cls-15{fill:#61626b;}.cls-16{fill:url(#linear-gradient-3);}.cls-17{fill:url(#linear-gradient-4);}.cls-18{fill:url(#linear-gradient-5);}.cls-19{fill:url(#linear-gradient-6);}.cls-20{fill:#aaacae;}.cls-21{fill:#efeff0;}.cls-21,.cls-30,.cls-34,.cls-35,.cls-39{mix-blend-mode:screen;}.cls-22{fill:url(#linear-gradient-7);}.cls-23{fill:url(#linear-gradient-8);}.cls-24{fill:#657483;}.cls-25{fill:url(#linear-gradient-9);}.cls-26{fill:url(#linear-gradient-10);}.cls-27{fill:url(#linear-gradient-11);}.cls-29{fill:url(#linear-gradient-12);}.cls-31{fill:url(#linear-gradient-13);}.cls-32{fill:url(#linear-gradient-14);}.cls-33{fill:url(#linear-gradient-15);}.cls-34{fill:url(#linear-gradient-16);}.cls-35{fill:url(#linear-gradient-17);}.cls-37{fill:#c2bfc0;}.cls-38{fill:#303134;}.cls-39{fill:#a9abae;}.cls-40{fill:url(#linear-gradient-18);}.cls-41{fill:#5a5b5d;}</style><linearGradient id="linear-gradient" x1="16.68" y1="35.41" x2="16.94" y2="37.58" gradientUnits="userSpaceOnUse"><stop offset="0.46" stop-color="#e5e0df"/><stop offset="1" stop-color="#8ca99c"/></linearGradient><linearGradient id="linear-gradient-2" x1="17.89" y1="35.41" x2="18.15" y2="37.58" xlink:href="#linear-gradient"/><linearGradient id="linear-gradient-3" x1="3.26" y1="35.41" x2="3.52" y2="37.58" xlink:href="#linear-gradient"/><linearGradient id="linear-gradient-4" x1="4.47" y1="35.41" x2="4.73" y2="37.58" xlink:href="#linear-gradient"/><linearGradient id="linear-gradient-5" x1="10.7" y1="4.69" x2="10.7" y2="19.66" gradientUnits="userSpaceOnUse"><stop offset="0.69" stop-color="#e5e0df"/><stop offset="1" stop-color="#727876"/></linearGradient><linearGradient id="linear-gradient-6" x1="9.4" y1="22.21" x2="15.49" y2="22.21" xlink:href="#linear-gradient-5"/><linearGradient id="linear-gradient-7" x1="11.99" y1="33.05" x2="12.67" y2="38.71" xlink:href="#linear-gradient"/><linearGradient id="linear-gradient-8" x1="12.24" y1="33.02" x2="12.92" y2="38.68" xlink:href="#linear-gradient"/><linearGradient id="linear-gradient-9" x1="8.42" y1="33.05" x2="9.1" y2="38.71" xlink:href="#linear-gradient"/><linearGradient id="linear-gradient-10" x1="8.67" y1="33.02" x2="9.35" y2="38.68" xlink:href="#linear-gradient"/><linearGradient id="linear-gradient-11" x1="-2.27" y1="16.55" x2="8.07" y2="31.84" gradientUnits="userSpaceOnUse"><stop offset="0.46" stop-color="#e5e0df"/><stop offset="1" stop-color="#454949"/></linearGradient><linearGradient id="linear-gradient-12" x1="3.11" y1="25.48" x2="12.02" y2="29.49" xlink:href="#linear-gradient-11"/><linearGradient id="linear-gradient-13" x1="879.39" y1="16.55" x2="889.73" y2="31.84" gradientTransform="matrix(-1, 0, 0, 1, 903.06, 0)" xlink:href="#linear-gradient-11"/><linearGradient id="linear-gradient-14" x1="884.77" y1="25.48" x2="893.67" y2="29.49" gradientTransform="matrix(-1, 0, 0, 1, 903.06, 0)" xlink:href="#linear-gradient-11"/><linearGradient id="linear-gradient-15" x1="6.84" y1="24.16" x2="15.4" y2="24.16" gradientUnits="userSpaceOnUse"><stop offset="0.69" stop-color="#e5e0df"/><stop offset="1" stop-color="#b2b8b4"/></linearGradient><linearGradient id="linear-gradient-16" x1="6.59" y1="25.46" x2="14.44" y2="29" xlink:href="#linear-gradient-11"/><linearGradient id="linear-gradient-17" x1="9.31" y1="14.86" x2="11.13" y2="15.68" xlink:href="#linear-gradient-11"/><linearGradient id="linear-gradient-18" x1="4.88" y1="30.8" x2="13.53" y2="30.8" xlink:href="#linear-gradient-11"/></defs><g class="cls-1"><g id="Laag_2" data-name="Laag 2"><g id="Layer_1" data-name="Layer 1"><polygon class="cls-2" points="16.12 32.94 15.36 32.43 15.36 25.88 16.12 25.54 16.12 32.94"/><polygon class="cls-3" points="15.61 25.75 15.61 32.58 16.12 32.94 16.12 25.54 15.61 25.75"/><polygon class="cls-2" points="18.94 32.94 19.45 32.67 19.45 29.29 18.94 29.12 18.94 32.94"/><polygon class="cls-3" points="19.28 29.23 19.28 32.76 18.94 32.94 18.94 29.12 19.28 29.23"/><polygon class="cls-2" points="19.07 28.48 19.45 28.37 19.45 26.85 19.07 26.77 19.07 28.48"/><polygon class="cls-3" points="19.33 26.82 19.33 28.4 19.07 28.48 19.07 26.77 19.33 26.82"/><path class="cls-4" d="M17,35.78h-.37a2.34,2.34,0,0,0-.33,1.29,1.6,1.6,0,0,0,.52.08,1.57,1.57,0,0,0,.51-.08A2.34,2.34,0,0,0,17,35.78Z"/><path class="cls-5" d="M17.13,36.13a2,2,0,0,0-.18-.35h-.37a1.62,1.62,0,0,0-.17.36A1.93,1.93,0,0,0,17.13,36.13Z"/><path class="cls-6" d="M16.25,36.92V37a1.59,1.59,0,0,0,.48.06,2.43,2.43,0,0,0,.55-.07v-.06A2.11,2.11,0,0,1,16.25,36.92Z"/><path class="cls-6" d="M16.27,36.72a.13.13,0,0,0,0,.06,1.56,1.56,0,0,0,.47.06,2.35,2.35,0,0,0,.54-.07v-.06A1.88,1.88,0,0,1,16.27,36.72Z"/><path class="cls-6" d="M17.2,36.38s0,0,0-.06a1.84,1.84,0,0,1-.85,0s0,0,0,.06a1.9,1.9,0,0,0,.4,0A2.15,2.15,0,0,0,17.2,36.38Z"/><path class="cls-6" d="M16.3,36.52v.06a1.44,1.44,0,0,0,.44.06,2.76,2.76,0,0,0,.52-.06v-.06A2,2,0,0,1,16.3,36.52Z"/><path class="cls-6" d="M17.15,36.19a.14.14,0,0,1,0-.06,1.93,1.93,0,0,1-.72,0l0,.06a1.69,1.69,0,0,0,.35,0A2.27,2.27,0,0,0,17.15,36.19Z"/><path class="cls-7" d="M17,35.78h-.37a2.34,2.34,0,0,0-.33,1.29h0a2.5,2.5,0,0,1,.07-.54c0-.12.07-.39.25-.38s.15.8.15,1h0a1.57,1.57,0,0,0,.51-.08A2.34,2.34,0,0,0,17,35.78Z"/><path class="cls-7" d="M17,35.78h-.19a3.44,3.44,0,0,1,.3,1.34,1.15,1.15,0,0,0,.22,0A2.34,2.34,0,0,0,17,35.78Z"/><path class="cls-4" d="M18.17,35.78h-.38a2.34,2.34,0,0,0-.33,1.29,1.6,1.6,0,0,0,.52.08,1.57,1.57,0,0,0,.51-.08A2.39,2.39,0,0,0,18.17,35.78Z"/><path class="cls-8" d="M18.34,36.13a2.64,2.64,0,0,0-.17-.35h-.38a1.62,1.62,0,0,0-.17.36A1.93,1.93,0,0,0,18.34,36.13Z"/><path class="cls-6" d="M17.46,36.92V37a1.59,1.59,0,0,0,.48.06,2.43,2.43,0,0,0,.55-.07v-.06A2.11,2.11,0,0,1,17.46,36.92Z"/><path class="cls-6" d="M17.48,36.72s0,0,0,.06a1.56,1.56,0,0,0,.47.06,2.28,2.28,0,0,0,.54-.07v-.06A1.89,1.89,0,0,1,17.48,36.72Z"/><path class="cls-6" d="M18.42,36.38l0-.06a1.84,1.84,0,0,1-.85,0s0,0,0,.06a1.9,1.9,0,0,0,.4,0A2.17,2.17,0,0,0,18.42,36.38Z"/><path class="cls-6" d="M17.51,36.52v.06a1.44,1.44,0,0,0,.44.06,2.68,2.68,0,0,0,.52-.06v-.06A2,2,0,0,1,17.51,36.52Z"/><path class="cls-6" d="M18.36,36.19s0,0,0-.06a1.93,1.93,0,0,1-.72,0l0,.06a1.69,1.69,0,0,0,.35,0A2.27,2.27,0,0,0,18.36,36.19Z"/><path class="cls-7" d="M18.17,35.78h-.38a2.34,2.34,0,0,0-.33,1.29h.05a2,2,0,0,1,.06-.54c0-.12.08-.39.25-.38s.15.8.15,1h0a1.57,1.57,0,0,0,.51-.08A2.39,2.39,0,0,0,18.17,35.78Z"/><path class="cls-7" d="M18.17,35.78H18a3.44,3.44,0,0,1,.3,1.34,1.15,1.15,0,0,0,.22,0A2.39,2.39,0,0,0,18.17,35.78Z"/><polygon class="cls-9" points="17.57 34.21 17.57 34.19 17.46 34.2 17.36 34.19 17.36 34.21 15.74 34.41 16.22 36.29 17.36 36.29 17.57 36.29 18.71 36.29 19.18 34.41 17.57 34.21"/><path class="cls-10" d="M18.11,34.28c-.09.55-.22,1.09-.3,1.64,0,.12,0,.25,0,.37h.94l.47-1.88Z"/><path class="cls-10" d="M15.89,34.39l-.15,0,.48,1.88h.18C16.22,35.66,16.05,35,15.89,34.39Z"/><rect class="cls-11" x="15.74" y="15.94" width="3.44" height="18.48"/><rect class="cls-12" x="15.74" y="33.7" width="3.44" height="0.71"/><rect class="cls-12" x="15.74" y="19.73" width="3.44" height="0.29"/><rect class="cls-12" x="15.74" y="20.34" width="3.44" height="0.29"/><path class="cls-13" d="M17.69,11.79a.27.27,0,0,0-.23-.15.25.25,0,0,0-.22.15A18.74,18.74,0,0,0,15.74,16h3.44A18.8,18.8,0,0,0,17.69,11.79Z"/><path class="cls-14" d="M17.34,11.87A33.6,33.6,0,0,0,16,15.57s-.1.29.19.27h1.28s.45.07.42-.33S17.34,11.87,17.34,11.87Z"/><path class="cls-14" d="M17.72,16.09H16.21S16,16,16,16.73V32.81s0,.58.27.76l1.28.1s.38,0,.38-.71V16.59S17.91,16.09,17.72,16.09Z"/><circle class="cls-11" cx="16.35" cy="36.15" r="0.07"/><path class="cls-11" d="M16.87,36.15a.08.08,0,0,1-.07.07.07.07,0,0,1,0-.14A.08.08,0,0,1,16.87,36.15Z"/><path class="cls-11" d="M17.31,36.15a.07.07,0,1,1-.07-.07A.07.07,0,0,1,17.31,36.15Z"/><path class="cls-11" d="M17.75,36.15a.07.07,0,0,1-.07.07.07.07,0,0,1,0-.14A.07.07,0,0,1,17.75,36.15Z"/><circle class="cls-11" cx="18.13" cy="36.15" r="0.07"/><path class="cls-11" d="M18.64,36.15a.07.07,0,1,1-.07-.07A.07.07,0,0,1,18.64,36.15Z"/><rect class="cls-6" x="18.15" y="26.53" width="0.79" height="0.47"/><rect class="cls-6" x="18.15" y="27.11" width="0.79" height="0.24"/><rect class="cls-6" x="18.15" y="29.61" width="0.79" height="0.27"/><rect class="cls-6" x="18.15" y="29.98" width="0.79" height="1.19"/><rect class="cls-6" x="18.15" y="31.27" width="0.79" height="0.75"/><rect class="cls-6" x="18.15" y="33.09" width="0.79" height="0.31"/><path class="cls-15" d="M15.92,17.17a0,0,0,0,1-.05,0,0,0,0,0,1,0-.08A0,0,0,0,1,15.92,17.17Z"/><path class="cls-15" d="M16.45,17.17a0,0,0,0,1-.05,0,0,0,0,0,1,0-.08A0,0,0,0,1,16.45,17.17Z"/><path class="cls-15" d="M17,17.17a0,0,0,0,1-.05,0,0,0,0,0,1,0-.08A0,0,0,0,1,17,17.17Z"/><path class="cls-15" d="M17.51,17.17a0,0,0,0,1-.05,0,0,0,0,0,1,0-.08A0,0,0,0,1,17.51,17.17Z"/><path class="cls-15" d="M18,17.17a0,0,0,0,1,0,0,0,0,0,0,1,0-.08A0,0,0,0,1,18,17.17Z"/><path class="cls-15" d="M18.56,17.17a0,0,0,0,1-.08,0,0,0,0,0,1,.08,0A0,0,0,0,1,18.56,17.17Z"/><path class="cls-15" d="M19.09,17.17a0,0,0,0,1,0,0,0,0,0,0,1,0-.08A0,0,0,0,1,19.09,17.17Z"/><path class="cls-15" d="M15.92,26.32a0,0,0,0,1-.05,0,0,0,0,0,1,0,0,0,0,0,0,1,0-.05A0,0,0,0,1,15.92,26.32Z"/><path class="cls-15" d="M16.45,26.32a0,0,0,0,1-.05,0,0,0,0,0,1,0,0,0,0,0,0,1,0-.05A0,0,0,0,1,16.45,26.32Z"/><path class="cls-15" d="M17,26.32a0,0,0,0,1-.05,0,0,0,0,0,1,0,0,0,0,0,0,1,0-.05A0,0,0,0,1,17,26.32Z"/><path class="cls-15" d="M17.51,26.32a0,0,0,0,1-.05,0,0,0,0,0,1,0,0,0,0,0,0,1,0-.05A0,0,0,0,1,17.51,26.32Z"/><path class="cls-15" d="M18,26.32a0,0,0,0,1,0,0,0,0,0,0,1,0,0,0,0,0,0,1,0-.05S18,26.29,18,26.32Z"/><path class="cls-15" d="M18.56,26.32a0,0,0,0,1-.08,0,0,0,0,1,1,.08,0Z"/><path class="cls-15" d="M19.09,26.32a0,0,0,0,1,0,0,0,0,0,0,1,0,0,0,0,0,0,1,0-.05S19.09,26.29,19.09,26.32Z"/><polygon class="cls-2" points="2.7 32.94 1.94 32.43 1.94 25.88 2.7 25.54 2.7 32.94"/><polygon class="cls-3" points="2.19 25.75 2.19 32.58 2.7 32.94 2.7 25.54 2.19 25.75"/><polygon class="cls-2" points="5.52 32.94 6.04 32.67 6.04 29.29 5.52 29.12 5.52 32.94"/><polygon class="cls-3" points="5.86 29.23 5.86 32.76 5.52 32.94 5.52 29.12 5.86 29.23"/><polygon class="cls-2" points="5.65 28.48 6.04 28.37 6.04 26.85 5.65 26.77 5.65 28.48"/><polygon class="cls-3" points="5.91 26.82 5.91 28.4 5.65 28.48 5.65 26.77 5.91 26.82"/><path class="cls-4" d="M3.53,35.78H3.16a2.34,2.34,0,0,0-.33,1.29,1.6,1.6,0,0,0,.52.08,1.5,1.5,0,0,0,.51-.08A2.34,2.34,0,0,0,3.53,35.78Z"/><path class="cls-16" d="M3.71,36.13a2,2,0,0,0-.18-.35H3.16a1.62,1.62,0,0,0-.17.36A1.93,1.93,0,0,0,3.71,36.13Z"/><path class="cls-6" d="M2.83,36.92V37a1.59,1.59,0,0,0,.48.06A2.51,2.51,0,0,0,3.87,37a.13.13,0,0,1,0-.06A2.11,2.11,0,0,1,2.83,36.92Z"/><path class="cls-6" d="M2.85,36.72s0,0,0,.06a1.56,1.56,0,0,0,.47.06,2.28,2.28,0,0,0,.54-.07v-.06A1.88,1.88,0,0,1,2.85,36.72Z"/><path class="cls-6" d="M3.79,36.38l0-.06a1.84,1.84,0,0,1-.85,0s0,0,0,.06a1.9,1.9,0,0,0,.4,0A2.17,2.17,0,0,0,3.79,36.38Z"/><path class="cls-6" d="M2.88,36.52s0,0,0,.06a1.44,1.44,0,0,0,.44.06,2.68,2.68,0,0,0,.52-.06v-.06A2,2,0,0,1,2.88,36.52Z"/><path class="cls-6" d="M3.73,36.19s0,0,0-.06a1.93,1.93,0,0,1-.72,0l0,.06a1.69,1.69,0,0,0,.35,0A2.27,2.27,0,0,0,3.73,36.19Z"/><path class="cls-7" d="M3.53,35.78H3.16a2.34,2.34,0,0,0-.33,1.29h0a2.48,2.48,0,0,1,.06-.54c0-.12.07-.39.25-.38s.15.8.15,1h0a1.5,1.5,0,0,0,.51-.08A2.34,2.34,0,0,0,3.53,35.78Z"/><path class="cls-7" d="M3.53,35.78H3.34a3.44,3.44,0,0,1,.3,1.34,1.15,1.15,0,0,0,.22,0A2.34,2.34,0,0,0,3.53,35.78Z"/><path class="cls-4" d="M4.75,35.78H4.37A2.44,2.44,0,0,0,4,37.07a1.73,1.73,0,0,0,1,0A2.44,2.44,0,0,0,4.75,35.78Z"/><path class="cls-17" d="M4.92,36.13a2.64,2.64,0,0,0-.17-.35H4.37a1.62,1.62,0,0,0-.17.36A1.93,1.93,0,0,0,4.92,36.13Z"/><path class="cls-6" d="M4.05,36.92A.13.13,0,0,0,4,37a1.59,1.59,0,0,0,.48.06A2.51,2.51,0,0,0,5.08,37v-.06A2.09,2.09,0,0,1,4.05,36.92Z"/><path class="cls-6" d="M4.06,36.72a.13.13,0,0,1,0,.06,1.56,1.56,0,0,0,.47.06,2.43,2.43,0,0,0,.55-.07v-.06A1.89,1.89,0,0,1,4.06,36.72Z"/><path class="cls-6" d="M5,36.38l0-.06a1.8,1.8,0,0,1-.84,0l0,.06a1.9,1.9,0,0,0,.4,0A2.17,2.17,0,0,0,5,36.38Z"/><path class="cls-6" d="M4.09,36.52s0,0,0,.06a1.44,1.44,0,0,0,.44.06A2.68,2.68,0,0,0,5,36.58v-.06A2,2,0,0,1,4.09,36.52Z"/><path class="cls-6" d="M4.94,36.19l0-.06a1.93,1.93,0,0,1-.72,0,.14.14,0,0,0,0,.06,1.58,1.58,0,0,0,.34,0A2.27,2.27,0,0,0,4.94,36.19Z"/><path class="cls-7" d="M4.75,35.78H4.37A2.44,2.44,0,0,0,4,37.07h0a2.48,2.48,0,0,1,.06-.54c0-.12.08-.39.25-.38s.15.8.15,1h0a1.6,1.6,0,0,0,.52-.08A2.44,2.44,0,0,0,4.75,35.78Z"/><path class="cls-7" d="M4.75,35.78H4.56a3.62,3.62,0,0,1,.29,1.34,1.45,1.45,0,0,0,.23,0A2.44,2.44,0,0,0,4.75,35.78Z"/><polygon class="cls-9" points="4.15 34.21 4.15 34.19 4.04 34.2 3.94 34.19 3.94 34.21 2.32 34.41 2.8 36.29 3.94 36.29 4.15 36.29 5.29 36.29 5.77 34.41 4.15 34.21"/><path class="cls-10" d="M4.69,34.28c-.09.55-.21,1.09-.29,1.64,0,.12,0,.25-.05.37h.94l.48-1.88Z"/><path class="cls-10" d="M2.48,34.39l-.16,0,.48,1.88H3C2.8,35.66,2.63,35,2.48,34.39Z"/><rect class="cls-11" x="2.32" y="15.94" width="3.45" height="18.48"/><rect class="cls-12" x="2.32" y="33.7" width="3.45" height="0.71"/><rect class="cls-12" x="2.32" y="19.73" width="3.45" height="0.29"/><rect class="cls-12" x="2.32" y="20.34" width="3.45" height="0.29"/><path class="cls-13" d="M4.27,11.79A.27.27,0,0,0,4,11.64s-.13,0-.22.15A19.25,19.25,0,0,0,2.32,16H5.77A19.25,19.25,0,0,0,4.27,11.79Z"/><path class="cls-14" d="M3.92,11.87a32.18,32.18,0,0,0-1.34,3.7s-.11.29.18.27H4s.45.07.42-.33S3.92,11.87,3.92,11.87Z"/><path class="cls-14" d="M4.3,16.09H2.8s-.25-.07-.24.64V32.81s0,.58.27.76l1.29.1s.37,0,.37-.71V16.59S4.49,16.09,4.3,16.09Z"/><path class="cls-11" d="M3,36.15a.07.07,0,0,1-.07.07.07.07,0,0,1,0-.14A.07.07,0,0,1,3,36.15Z"/><path class="cls-11" d="M3.45,36.15a.07.07,0,1,1-.07-.07A.07.07,0,0,1,3.45,36.15Z"/><path class="cls-11" d="M3.89,36.15a.07.07,0,1,1-.07-.07A.07.07,0,0,1,3.89,36.15Z"/><path class="cls-11" d="M4.33,36.15a.07.07,0,0,1-.06.07.07.07,0,0,1,0-.14A.07.07,0,0,1,4.33,36.15Z"/><path class="cls-11" d="M4.78,36.15a.07.07,0,1,1-.07-.07A.07.07,0,0,1,4.78,36.15Z"/><path class="cls-11" d="M5.22,36.15a.07.07,0,0,1-.07.07.07.07,0,0,1,0-.14A.07.07,0,0,1,5.22,36.15Z"/><rect class="cls-6" x="4.73" y="26.53" width="0.79" height="0.47"/><rect class="cls-6" x="4.73" y="27.11" width="0.79" height="0.24"/><rect class="cls-6" x="4.73" y="29.61" width="0.79" height="0.27"/><rect class="cls-6" x="4.73" y="29.98" width="0.79" height="1.19"/><rect class="cls-6" x="4.73" y="31.27" width="0.79" height="0.75"/><rect class="cls-6" x="4.73" y="33.09" width="0.79" height="0.31"/><path class="cls-15" d="M2.5,17.17a0,0,0,0,1,0,0,0,0,0,0,1,0-.08A0,0,0,0,1,2.5,17.17Z"/><path class="cls-15" d="M3,17.17a0,0,0,0,1,0,0,0,0,0,0,1,0-.08A0,0,0,0,1,3,17.17Z"/><path class="cls-15" d="M3.56,17.17a0,0,0,0,1-.05,0,0,0,0,0,1,0-.08A0,0,0,0,1,3.56,17.17Z"/><path class="cls-15" d="M4.09,17.17a0,0,0,0,1,0,0,0,0,0,0,1,0-.08A0,0,0,0,1,4.09,17.17Z"/><path class="cls-15" d="M4.62,17.17a0,0,0,0,1,0,0,0,0,0,0,1,0-.08A0,0,0,0,1,4.62,17.17Z"/><path class="cls-15" d="M5.15,17.17a0,0,0,0,1-.05,0,0,0,0,0,1,0-.08A0,0,0,0,1,5.15,17.17Z"/><path class="cls-15" d="M5.68,17.17a0,0,0,0,1,0,0,0,0,0,0,1,0-.08A0,0,0,0,1,5.68,17.17Z"/><path class="cls-15" d="M2.5,26.32a0,0,0,0,1,0,0,0,0,0,0,1,0,0,0,0,0,0,1,0-.05A0,0,0,0,1,2.5,26.32Z"/><path class="cls-15" d="M3,26.32a0,0,0,0,1,0,0,0,0,0,0,1,0,0,0,0,0,0,1,0-.05A0,0,0,0,1,3,26.32Z"/><path class="cls-15" d="M3.56,26.32a0,0,0,0,1-.05,0,0,0,0,0,1,0,0,0,0,0,0,1,0-.05A0,0,0,0,1,3.56,26.32Z"/><path class="cls-15" d="M4.09,26.32a0,0,0,0,1,0,0,0,0,0,0,1,0,0,0,0,0,0,1,0-.05A0,0,0,0,1,4.09,26.32Z"/><path class="cls-15" d="M4.62,26.32a0,0,0,0,1,0,0,0,0,0,0,1,0,0,0,0,0,0,1,0-.05A0,0,0,0,1,4.62,26.32Z"/><path class="cls-15" d="M5.15,26.32a0,0,0,0,1-.05,0,0,0,0,0,1,0,0,0,0,0,0,1,0-.05A0,0,0,0,1,5.15,26.32Z"/><path class="cls-15" d="M5.68,26.32a0,0,0,0,1,0,0,0,0,0,0,1,0,0,0,0,0,0,1,0-.05A0,0,0,0,1,5.68,26.32Z"/><rect class="cls-18" x="6.3" y="10.95" width="8.79" height="22.52"/><rect class="cls-19" x="11" y="10.95" width="4.1" height="22.52"/><rect class="cls-12" x="6.3" y="12.38" width="8.79" height="0.65"/><path class="cls-20" d="M11.27.37C11.05,0,10.8,0,10.7,0s-.35,0-.58.37S6.5,8.29,6.3,11h8.79C14.9,8.29,11.56.82,11.27.37Z"/><path class="cls-20" d="M11.27.37C11.05,0,10.8,0,10.7,0s-.35,0-.58.37S6.5,8.29,6.3,11h8.79C14.9,8.29,11.56.82,11.27.37Z"/><path class="cls-13" d="M11.26,7.1c.11,1.31.22,2.62.3,3.93h3.53C14.9,8.29,11.56.82,11.27.37A.64.64,0,0,0,10.79,0C11.05,2.36,11.06,4.74,11.26,7.1Z"/><path class="cls-21" d="M10.38.59A85.4,85.4,0,0,0,7,10s-.26.74.47.71H8.3Z"/><path class="cls-21" d="M10.68,11.35H7.51s-.62-.08-.6.79v6.45a2.57,2.57,0,0,0,.61-1c.18-.54.34-1.08.53-1.61a7.58,7.58,0,0,1,1.72-2.9,2.45,2.45,0,0,1,.91-.68Z"/><path class="cls-15" d="M6.62,11.22a.08.08,0,0,1-.08.08.08.08,0,0,1-.07-.08.07.07,0,0,1,.07-.07A.07.07,0,0,1,6.62,11.22Z"/><path class="cls-15" d="M7.55,11.22a.08.08,0,0,1-.07.08.08.08,0,0,1-.08-.08.07.07,0,0,1,.08-.07A.07.07,0,0,1,7.55,11.22Z"/><path class="cls-15" d="M8.48,11.22a.08.08,0,0,1-.07.08.08.08,0,0,1-.08-.08.07.07,0,0,1,.08-.07A.07.07,0,0,1,8.48,11.22Z"/><path class="cls-15" d="M9.41,11.22a.08.08,0,0,1-.07.08.08.08,0,0,1-.08-.08.07.07,0,0,1,.08-.07A.07.07,0,0,1,9.41,11.22Z"/><path class="cls-15" d="M10.34,11.22a.08.08,0,0,1-.07.08.08.08,0,0,1-.08-.08.07.07,0,0,1,.08-.07A.07.07,0,0,1,10.34,11.22Z"/><path class="cls-15" d="M11.27,11.22a.08.08,0,0,1-.07.08.08.08,0,0,1-.08-.08.07.07,0,0,1,.08-.07A.07.07,0,0,1,11.27,11.22Z"/><path class="cls-15" d="M12.2,11.22a.08.08,0,0,1-.07.08.08.08,0,0,1-.08-.08.07.07,0,0,1,.08-.07A.07.07,0,0,1,12.2,11.22Z"/><path class="cls-15" d="M13.15,11.22a.08.08,0,1,1-.16,0,.08.08,0,0,1,.16,0Z"/><path class="cls-15" d="M14.08,11.22a.08.08,0,1,1-.16,0,.08.08,0,0,1,.16,0Z"/><path class="cls-15" d="M15,11.22a.09.09,0,0,1-.08.08.08.08,0,0,1-.07-.08.07.07,0,0,1,.07-.07A.08.08,0,0,1,15,11.22Z"/><path class="cls-22" d="M13,34H12a6.16,6.16,0,0,0-.86,3.36,3.61,3.61,0,0,0,1.34.22,3.7,3.7,0,0,0,1.35-.22A6.16,6.16,0,0,0,13,34Z"/><path class="cls-23" d="M13.41,34.9A4.8,4.8,0,0,0,13,34H12a4.67,4.67,0,0,0-.46,1A5.13,5.13,0,0,0,13.41,34.9Z"/><path class="cls-24" d="M11.13,36.94v.17a4.67,4.67,0,0,0,1.24.16,5.89,5.89,0,0,0,1.45-.18.86.86,0,0,0,0-.16A5.1,5.1,0,0,1,11.13,36.94Z"/><path class="cls-24" d="M11.17,36.42c0,.06,0,.11,0,.17a4.69,4.69,0,0,0,1.22.16,6.11,6.11,0,0,0,1.42-.18s0-.11,0-.16A5,5,0,0,1,11.17,36.42Z"/><path class="cls-24" d="M13.61,35.55a.83.83,0,0,0,0-.15,5.31,5.31,0,0,1-2.2,0,.75.75,0,0,0,0,.16,5,5,0,0,0,1,.11A6,6,0,0,0,13.61,35.55Z"/><path class="cls-24" d="M11.25,35.92l0,.16a4.66,4.66,0,0,0,1.15.14,6.54,6.54,0,0,0,1.35-.16l0-.16A5.21,5.21,0,0,1,11.25,35.92Z"/><path class="cls-24" d="M13.46,35.05a.88.88,0,0,0-.05-.15,5.13,5.13,0,0,1-1.88,0l-.06.16a5.15,5.15,0,0,0,.9.08A5.66,5.66,0,0,0,13.46,35.05Z"/><path class="cls-7" d="M13,34H12a6.16,6.16,0,0,0-.86,3.36l.11,0a6,6,0,0,1,.17-1.4c.05-.3.19-1,.64-1s.39,2.09.41,2.57h0a3.7,3.7,0,0,0,1.35-.22A6.16,6.16,0,0,0,13,34Z"/><path class="cls-7" d="M13,34h-.5a9.39,9.39,0,0,1,.77,3.52,3.74,3.74,0,0,0,.59-.16A6.16,6.16,0,0,0,13,34Z"/><path class="cls-25" d="M9.39,34h-1a6.2,6.2,0,0,0-.85,3.36,3.61,3.61,0,0,0,1.34.22,3.61,3.61,0,0,0,1.34-.22A6.2,6.2,0,0,0,9.39,34Z"/><path class="cls-26" d="M9.83,34.9A5.23,5.23,0,0,0,9.39,34h-1a5.06,5.06,0,0,0-.45,1A5.07,5.07,0,0,0,9.83,34.9Z"/><path class="cls-24" d="M7.56,36.94a1,1,0,0,1,0,.17,4.77,4.77,0,0,0,1.25.16,5.81,5.81,0,0,0,1.44-.18v-.16A5.09,5.09,0,0,1,7.56,36.94Z"/><path class="cls-24" d="M7.6,36.42c0,.06,0,.11,0,.17a4.62,4.62,0,0,0,1.22.16,6.18,6.18,0,0,0,1.42-.18s0-.11,0-.16A5,5,0,0,1,7.6,36.42Z"/><path class="cls-24" d="M10,35.55s0-.1,0-.15a5.3,5.3,0,0,1-2.2,0s0,.1,0,.16a5.18,5.18,0,0,0,1.05.11A6,6,0,0,0,10,35.55Z"/><path class="cls-24" d="M7.68,35.92l0,.16a4.66,4.66,0,0,0,1.15.14,6.61,6.61,0,0,0,1.35-.16l0-.16A5.21,5.21,0,0,1,7.68,35.92Z"/><path class="cls-24" d="M9.89,35.05l-.06-.15a5.07,5.07,0,0,1-1.87,0l-.06.16a5.15,5.15,0,0,0,.9.08A5.73,5.73,0,0,0,9.89,35.05Z"/><path class="cls-7" d="M9.39,34h-1a6.2,6.2,0,0,0-.85,3.36l.11,0A6,6,0,0,1,7.84,36c0-.3.19-1,.64-1s.39,2.09.4,2.57h0a3.61,3.61,0,0,0,1.34-.22A6.2,6.2,0,0,0,9.39,34Z"/><path class="cls-7" d="M9.39,34h-.5a9.19,9.19,0,0,1,.76,3.52,3.36,3.36,0,0,0,.59-.16A6.2,6.2,0,0,0,9.39,34Z"/><path class="cls-27" d="M8,18.11a3.18,3.18,0,0,0-1.41,2.24,5.93,5.93,0,0,1-2.4,4.11,10.28,10.28,0,0,0-4.19,9s0,.27.33.31l6.92.45H8.35Z"/><path class="cls-28" d="M8.07,20.48a2.65,2.65,0,0,0-1.16,1.86,5,5,0,0,1-2,3.41,8.53,8.53,0,0,0-3.48,7.46s0,.23.28.26l5.73.37h.9Z"/><path class="cls-29" d="M8,18.11a2.68,2.68,0,0,0-.8.76c-.08,1.4-.57,9.6-.71,11.72C6.37,32.91,5,33,3.41,33.06S.67,32.64.6,31.18,2,26.61,2,26.61a10.33,10.33,0,0,0-2,6.87s0,.27.33.31l6.92.45H8.35Z"/><path class="cls-30" d="M6.67,20.48A6.59,6.59,0,0,1,5.1,23.9c-1.29,1.22-2.89,1.85-3.59,4a5.73,5.73,0,0,1,2.25-2.76C5.54,24,6.62,23,6.67,20.48Z"/><path class="cls-31" d="M13.38,18.11a3.18,3.18,0,0,1,1.41,2.24,5.92,5.92,0,0,0,2.39,4.11,10.28,10.28,0,0,1,4.2,9s.05.27-.34.31l-6.91.45H13.05Z"/><path class="cls-28" d="M13.32,20.48a2.65,2.65,0,0,1,1.17,1.86,5,5,0,0,0,2,3.41A8.51,8.51,0,0,1,20,33.21s0,.23-.28.26L14,33.84h-.9Z"/><path class="cls-32" d="M13.38,18.11a2.68,2.68,0,0,1,.8.76c.08,1.4.57,9.6.7,11.72C15,32.91,16.37,33,18,33.06s2.74-.42,2.81-1.88-1.44-4.57-1.45-4.57a10.28,10.28,0,0,1,2,6.87s.05.27-.34.31l-6.91.45H13.05Z"/><path class="cls-30" d="M14.72,20.48A6.65,6.65,0,0,0,16.3,23.9c1.28,1.22,2.89,1.85,3.58,4a5.65,5.65,0,0,0-2.25-2.76C15.86,24,14.77,23,14.72,20.48Z"/><path class="cls-33" d="M13.87,20.06c-.29-3.58-1.61-5.88-2.52-6.78a1,1,0,0,0-.58-.33h-.14a1,1,0,0,0-.59.33c-.9.9-2.22,3.2-2.51,6.78s-.16,14.18-.16,14.18.07.59,1.38.92a9.16,9.16,0,0,0,3.9,0C14,34.83,14,34.24,14,34.24S14.16,23.71,13.87,20.06Z"/><path class="cls-34" d="M9.93,18.83A2.43,2.43,0,0,0,8,20.93c-.12,1.74,0,12.79,0,12.79a.92.92,0,0,0,.6,1c.68.25,2.25.42,2.18-1s0-13.58,0-13.58S10.94,18.63,9.93,18.83Z"/><path class="cls-35" d="M10.56,13.14s-.45.15-1.06,1.13S8.19,17,8.6,16.8a3.42,3.42,0,0,1,2-.77s.22-.05.22-.39S10.87,13,10.56,13.14Z"/><g class="cls-36"><path class="cls-37" d="M13.87,20.06c-.29-3.58-1.61-5.88-2.52-6.78a1,1,0,0,0-.58-.33H10.6c.15,0,.71.27,1.14,1.39a7.18,7.18,0,0,1,.53,1.84s0,.36-.3.29a10.73,10.73,0,0,0-1.68-.07L11,18a2.13,2.13,0,0,1,1.58,1.22c.5,1.08.26,14.79.26,14.79a1.13,1.13,0,0,1-1,1c-1,.16-3.58.27-4.09-1.07a6.62,6.62,0,0,1-.36-1.78c0,1.26,0,2.09,0,2.09s.07.59,1.38.92a9.16,9.16,0,0,0,3.9,0C14,34.83,14,34.24,14,34.24S14.16,23.71,13.87,20.06Z"/></g><path class="cls-38" d="M13,17.73a1.64,1.64,0,0,0-.83-1,2.3,2.3,0,0,0-.72-.26,4.13,4.13,0,0,0-1.75,0s-1.19.28-1.43,1.22A6.53,6.53,0,0,0,8,20.07c.13,0,.08-.67.35-1a2.65,2.65,0,0,1,1.5-1,3.61,3.61,0,0,1,2,.12,2.65,2.65,0,0,1,1,.69c.05.06.09.12.14.17.27.32.22,1,.35,1A6.65,6.65,0,0,0,13,17.73Z"/><path class="cls-38" d="M13,17.73a1.64,1.64,0,0,0-.83-1,2.3,2.3,0,0,0-.72-.26,4,4,0,0,0-.46-.07c0,.13.22,1.13-.43,1.25a5,5,0,0,0-.77.17A2.35,2.35,0,0,0,8.05,20c.07-.18.08-.66.3-.92a2.65,2.65,0,0,1,1.5-1,3.61,3.61,0,0,1,2,.12,2.65,2.65,0,0,1,1,.69c.05.06.09.12.14.17.27.32.22,1,.35,1A6.65,6.65,0,0,0,13,17.73Z"/><path class="cls-39" d="M8.92,17.08a1.81,1.81,0,0,1,.7-.4,4.38,4.38,0,0,1,.94-.2,2.32,2.32,0,0,0-1.91.71,1.52,1.52,0,0,0-.35.64A2.25,2.25,0,0,1,8.92,17.08Z"/><path class="cls-40" d="M7.34,29.43c0,.86,0,1.67,0,2.36A11.47,11.47,0,0,0,14,31.72c0-.7,0-1.51,0-2.37A11.39,11.39,0,0,1,7.34,29.43Z"/><path class="cls-28" d="M11.41,28.11c-.08-.5-.64-.44-.64-.44h-.14s-.57-.06-.64.44.32,7.3.32,7.3a.43.43,0,0,0,.32.49h.14a.43.43,0,0,0,.32-.49S11.48,28.6,11.41,28.11Z"/><path class="cls-41" d="M11.41,28.11c-.08-.5-.64-.44-.64-.44h-.14s-.57-.06-.64.44.32,7.3.32,7.3a.43.43,0,0,0,.32.49h.14a.43.43,0,0,0,.32-.49S11.48,28.6,11.41,28.11Z"/><path class="cls-28" d="M10.77,28.26c0-.37-.24-.32-.24-.32h0s-.21,0-.22.34.19,7.3.19,7.3S11,35.16,10.77,28.26Z"/><path class="cls-41" d="M2,33.27a.09.09,0,0,1-.1.1.1.1,0,0,1-.11-.1.11.11,0,0,1,.11-.11A.1.1,0,0,1,2,33.27Z"/><circle class="cls-41" cx="2.94" cy="33.37" r="0.11"/><path class="cls-41" d="M4.08,33.43a.1.1,0,0,1-.11.1.09.09,0,0,1-.1-.1.1.1,0,0,1,.1-.11A.11.11,0,0,1,4.08,33.43Z"/><path class="cls-41" d="M5.11,33.51a.09.09,0,0,1-.1.1.1.1,0,0,1-.11-.1A.11.11,0,0,1,5,33.4.1.1,0,0,1,5.11,33.51Z"/><path class="cls-41" d="M6.15,33.49a.11.11,0,1,1-.22,0,.11.11,0,0,1,.22,0Z"/><path class="cls-41" d="M7.18,33.6a.11.11,0,0,1-.11.11.11.11,0,0,1,0-.22A.11.11,0,0,1,7.18,33.6Z"/><path class="cls-41" d="M19.51,33.27a.09.09,0,0,0,.1.1.1.1,0,0,0,.11-.1.11.11,0,0,0-.11-.11A.1.1,0,0,0,19.51,33.27Z"/><path class="cls-41" d="M18.47,33.37a.11.11,0,0,0,.22,0,.11.11,0,0,0-.22,0Z"/><path class="cls-41" d="M17.44,33.43a.1.1,0,0,0,.11.1.09.09,0,0,0,.1-.1.1.1,0,0,0-.1-.11A.11.11,0,0,0,17.44,33.43Z"/><path class="cls-41" d="M16.41,33.51a.09.09,0,0,0,.1.1.1.1,0,0,0,.11-.1.11.11,0,0,0-.11-.11A.1.1,0,0,0,16.41,33.51Z"/><path class="cls-41" d="M15.37,33.49a.11.11,0,1,0,.22,0,.11.11,0,0,0-.22,0Z"/><path class="cls-41" d="M14.34,33.6a.11.11,0,1,0,.11-.11A.11.11,0,0,0,14.34,33.6Z"/></g></g></g></svg>