<svg xmlns="http://www.w3.org/2000/svg" xmlns:xlink="http://www.w3.org/1999/xlink" viewBox="0 0 119.41 363.51"><defs><style>.cls-1{fill:#2c2c2c;}.cls-2{fill:#02c6cb;}.cls-3{fill:#fff;}.cls-4{fill:#08a8b1;}.cls-5{fill:#040273;}.cls-6{fill:#ffaf82;}.cls-7{fill:#f88968;}.cls-8{fill:#ffa378;}.cls-9{fill:#32324c;}.cls-10{fill:#920e08;}.cls-11{fill:#f85c66;}</style></defs><g id="Laag_2" data-name="Laag 2"><g id="OBJECTS"><path class="cls-1" d="M30.12,191.47A67.24,67.24,0,0,1,33.25,170c20.61-1.33,53,0,53,0l.13.37s3.33,11.71,1.38,21.07C67.73,203.88,48.41,203.06,30.12,191.47Z"/><path class="cls-1" d="M88.17,189s4.43,60.38,3.91,75.45l4,79.14-13.16-.78C80,306.59,75.14,288.4,75.28,265L64,194.61A64.7,64.7,0,0,1,88.17,189Z"/><path class="cls-2" d="M82.41,342.19c.37-5.2,5-8,9.76-6.73s5.2,9,5.2,9a24.28,24.28,0,0,1,6.89,14q.06.3.09.6a3.13,3.13,0,0,1-2.6,3.43,69.39,69.39,0,0,1-23.92.07,3.11,3.11,0,0,1-2.54-3.45c0-.07,0-.13,0-.19.52-3.94,1.59-11.17,6.42-13.85Z"/><path class="cls-3" d="M84.25,348.19l-.42-.95c.29-.13,7.12-3.06,12.09.19l-.57.87C90.84,345.35,84.31,348.16,84.25,348.19Z"/><path class="cls-3" d="M85.1,348.05a1.17,1.17,0,1,1-1-1.34A1.15,1.15,0,0,1,85.1,348.05Z"/><path class="cls-3" d="M96.83,347.77a1.15,1.15,0,0,1-1.34,1,1.17,1.17,0,0,1,.38-2.3A1.16,1.16,0,0,1,96.83,347.77Z"/><path class="cls-3" d="M84.37,345.26l-.42-.95c.29-.13,7.11-3.06,12.09.19l-.57.87C91,342.42,84.43,345.23,84.37,345.26Z"/><path class="cls-3" d="M85.22,345.12a1.17,1.17,0,1,1-1-1.34A1.16,1.16,0,0,1,85.22,345.12Z"/><path class="cls-3" d="M97,344.84a1.17,1.17,0,1,1-1-1.34A1.15,1.15,0,0,1,97,344.84Z"/><path class="cls-3" d="M84.25,351.11l-.42-.95c.29-.13,7.12-3.06,12.09.19l-.57.87C90.84,348.28,84.31,351.08,84.25,351.11Z"/><path class="cls-3" d="M85.1,351a1.17,1.17,0,1,1-1-1.34A1.15,1.15,0,0,1,85.1,351Z"/><path class="cls-3" d="M96.83,350.69a1.15,1.15,0,0,1-1.34,1,1.17,1.17,0,1,1,1.34-1Z"/><path class="cls-3" d="M92.84,338.81a9.46,9.46,0,0,0-6.49.26,3.37,3.37,0,0,0,0,2.39,23.92,23.92,0,0,1,6.59-.15A3.64,3.64,0,0,0,92.84,338.81Z"/><path class="cls-4" d="M101.75,362.44a69.39,69.39,0,0,1-23.92.07,3.11,3.11,0,0,1-2.54-3.45c0-.07,0-.13,0-.19a52.2,52.2,0,0,0,29-.46q.06.3.09.6A3.13,3.13,0,0,1,101.75,362.44Z"/><path class="cls-1" d="M30.18,189s-4.43,60.38-3.91,75.45l-4,79.14,13.16-.78c2.86-36.26,7.75-54.45,7.61-77.84l11.27-70.4A64.7,64.7,0,0,0,30.18,189Z"/><path class="cls-2" d="M35.94,342.19c-.37-5.2-5-8-9.76-6.73s-5.19,9-5.19,9a24.26,24.26,0,0,0-6.9,14c0,.2-.07.4-.09.6a3.13,3.13,0,0,0,2.6,3.43,69.39,69.39,0,0,0,23.92.07,3.11,3.11,0,0,0,2.54-3.45c0-.07,0-.13,0-.19-.52-3.94-1.59-11.17-6.41-13.85Z"/><path class="cls-3" d="M34.1,348.19l.42-.95c-.29-.13-7.11-3.06-12.09.19l.57.87C27.51,345.35,34,348.16,34.1,348.19Z"/><path class="cls-3" d="M33.25,348.05a1.17,1.17,0,1,0,1-1.34A1.16,1.16,0,0,0,33.25,348.05Z"/><path class="cls-3" d="M21.52,347.77a1.17,1.17,0,1,0,1-1.34A1.15,1.15,0,0,0,21.52,347.77Z"/><path class="cls-3" d="M34,345.26l.41-.95c-.29-.13-7.11-3.06-12.09.19l.57.87C27.39,342.42,33.92,345.23,34,345.26Z"/><path class="cls-3" d="M33.13,345.12a1.17,1.17,0,1,0,1-1.34A1.16,1.16,0,0,0,33.13,345.12Z"/><path class="cls-3" d="M21.4,344.84a1.17,1.17,0,1,0,1-1.34A1.16,1.16,0,0,0,21.4,344.84Z"/><path class="cls-3" d="M34.1,351.11l.42-.95c-.29-.13-7.11-3.06-12.09.19l.57.87C27.51,348.28,34,351.08,34.1,351.11Z"/><path class="cls-3" d="M33.25,351a1.17,1.17,0,1,0,1-1.34A1.16,1.16,0,0,0,33.25,351Z"/><path class="cls-3" d="M21.52,350.69a1.17,1.17,0,1,0,1-1.34A1.15,1.15,0,0,0,21.52,350.69Z"/><path class="cls-3" d="M25.51,338.81a9.46,9.46,0,0,1,6.49.26,3.37,3.37,0,0,1,0,2.39,23.92,23.92,0,0,0-6.59-.15A3.64,3.64,0,0,1,25.51,338.81Z"/><path class="cls-4" d="M16.6,362.44a69.39,69.39,0,0,0,23.92.07,3.11,3.11,0,0,0,2.54-3.45c0-.07,0-.13,0-.19a52.19,52.19,0,0,1-28.95-.46c0,.2-.07.4-.09.6A3.13,3.13,0,0,0,16.6,362.44Z"/><path class="cls-5" d="M88.85,175.16c-10.27,5.37-19.24,8.28-29.28,8.21s-18.65-2.84-28.92-8.21l2.41-50L32.8,66.75l19.27-5.18a28.9,28.9,0,0,1,15,0l19.28,5.18-.26,58.37Z"/><path class="cls-6" d="M14,175.11a62.41,62.41,0,0,0,2.42,6.57c1.27,2.76.4,4.9,1.16,7.39s-2.22,2.32-2.8-.3-.33-3.86-.88-4-2.1,6.3-2.33,8.13.15,6.43-.53,7.14-2.34-1.86-1.82-6.64.14-4.68.14-4.68-.45,1.86-.92,3.85a21.29,21.29,0,0,0-.39,5.79c.09,1.36-1.3,2-1.71,1.31s-1.06-5.49-.51-7.34,1.22-5,1.22-5-1.82,4.27-2.14,5.38.21,5.31-.75,6.08c-.4.31-1.67-.11-1.46-6.11a33.65,33.65,0,0,1,1.07-4.74,10.72,10.72,0,0,0-1.46,3.18,29.42,29.42,0,0,0-.79,4.9c-.14,1.62-1.55,1.4-1.55-1.46s.48-6,1.28-7.53,2-10.43,4.36-13.69Z"/><path class="cls-5" d="M41,79.72s-6.85,31.7-12.59,42.67c0,0-3.15,15.43-14.12,53.3,0,0-5.73,2.28-9.07-2.07,0,0,5.3-41.64,8.5-54.95,0,0,14.32-46,19.12-51.92C32.8,66.75,40.2,69.75,41,79.72Z"/><path class="cls-6" d="M105.38,175.11a62.41,62.41,0,0,1-2.42,6.57c-1.27,2.76-.4,4.9-1.16,7.39s2.22,2.32,2.8-.3.33-3.86.88-4,2.1,6.3,2.33,8.13-.15,6.43.53,7.14,2.34-1.86,1.82-6.64-.14-4.68-.14-4.68l.93,3.85a21.65,21.65,0,0,1,.38,5.79c-.09,1.36,1.3,2,1.71,1.31s1.07-5.49.51-7.34-1.22-5-1.22-5,1.83,4.27,2.14,5.38-.21,5.31.75,6.08c.4.31,1.67-.11,1.46-6.11a33.65,33.65,0,0,0-1.07-4.74,10.72,10.72,0,0,1,1.46,3.18,29.42,29.42,0,0,1,.79,4.9c.14,1.62,1.55,1.4,1.55-1.46s-.48-6-1.28-7.53-2-10.43-4.36-13.69Z"/><path class="cls-5" d="M78.46,79.72S85.3,111.42,91,122.39c0,0,3.16,15.43,14.12,53.3,0,0,5.73,2.28,9.07-2.07,0,0-5.3-41.64-8.49-54.95,0,0-14.58-46-19.39-51.92C86.35,66.75,79.21,69.75,78.46,79.72Z"/><path class="cls-6" d="M67.36,51.5l-.26,4.85-.32,6.07s-1.21,2.29-6.65,2.29-6.56-1.56-6.56-1.56l-.22-2.7-.73-9Z"/><path class="cls-7" d="M67.36,51.5l-.26,4.85c-2.27,1.7-7.64,5-13.75,4.1l-.73-9Z"/><path class="cls-8" d="M43.32,29.46s-4.17-4.08-7.5-1.42C31.89,31.19,36,42.51,43,41.31Z"/><path class="cls-7" d="M40.89,38.49a.69.69,0,0,1-.67-.63c-.44-5.57-3.71-6.54-3.84-6.58A.69.69,0,1,1,36.73,30c.17,0,4.34,1.2,4.87,7.8a.69.69,0,0,1-.63.74Z"/><path class="cls-7" d="M37,35.65a.64.64,0,0,1-.45-.19.68.68,0,0,1,0-1,3.89,3.89,0,0,1,3.72-.94.69.69,0,0,1,.5.84.68.68,0,0,1-.84.49,2.52,2.52,0,0,0-2.38.56A.66.66,0,0,1,37,35.65Z"/><path class="cls-8" d="M75.19,29.46s4.17-4.08,7.5-1.42c3.93,3.15-.18,14.47-7.16,13.27Z"/><path class="cls-7" d="M77.62,38.49a.69.69,0,0,0,.67-.63c.44-5.57,3.71-6.54,3.84-6.58A.69.69,0,0,0,81.78,30c-.17,0-4.34,1.2-4.87,7.8a.69.69,0,0,0,.63.74Z"/><path class="cls-7" d="M81.52,35.65a.64.64,0,0,0,.45-.19.68.68,0,0,0,0-1,3.89,3.89,0,0,0-3.72-.94.69.69,0,0,0-.5.84.68.68,0,0,0,.84.49,2.52,2.52,0,0,1,2.38.56A.66.66,0,0,0,81.52,35.65Z"/><path class="cls-6" d="M59.46,56.26c-14.4,0-18.85-17.11-20.18-29.64A19.77,19.77,0,0,1,58.64,4.75h1A19.79,19.79,0,0,1,79.11,26.24C78,38.94,73.87,56.26,59.46,56.26Z"/><path class="cls-9" d="M40.75,30.5c-.49-4.24.87-9.07,2-10.33,2.48-2.64,2.57-7.11,2.57-7.11,8.93,5.06,25.42-.1,25.42-.1-.28,3.32,4.14,5.16,5.16,8.23.43,1.31,2.16,4.91,1.81,8.73l.94.07c3.94-13.82-3.77-19-3.77-19s2.62-1.83-1.74-6.28C68.41-.13,58.1-1.71,50.07,2.19c-8.64,4.2-9.28,10.57-9.28,10.57s-3.64,1.16-3.61,6.44c0,2.26,1.54,7.44,2.67,11.77Z"/><path class="cls-9" d="M45.69,23.07a7.24,7.24,0,0,1,4-3.54A6.8,6.8,0,0,1,54.8,20a.89.89,0,0,1,.39,1.08h0a.89.89,0,0,1-1.2.5C52.51,20.87,49.24,20,45.69,23.07Z"/><path class="cls-9" d="M73.55,23.07a7.24,7.24,0,0,0-4-3.54,6.8,6.8,0,0,0-5.08.45.89.89,0,0,0-.39,1.08h0a.89.89,0,0,0,1.2.5C66.73,20.87,70,20,73.55,23.07Z"/><path class="cls-7" d="M59.5,38.27a.75.75,0,0,1-.58-.35.76.76,0,0,1,.25-1.05l2.17-1.34-1.7-.62a.77.77,0,0,1-.5-.67l-.29-4.89a.75.75,0,0,1,.71-.8.76.76,0,0,1,.81.71l.26,4.39,2.7,1a.75.75,0,0,1,.49.63.79.79,0,0,1-.35.73L60,38.16A.67.67,0,0,1,59.5,38.27Z"/><path class="cls-9" d="M52,35.37a6.15,6.15,0,1,1,6-6.27A6.16,6.16,0,0,1,52,35.37Zm-.23-11.28a5.14,5.14,0,1,0,5.24,5A5.14,5.14,0,0,0,51.74,24.09Z"/><path class="cls-9" d="M68,35.05a6.15,6.15,0,1,1,6-6.27A6.15,6.15,0,0,1,68,35.05Zm-.23-11.28a5.14,5.14,0,1,0,5.24,5A5.13,5.13,0,0,0,67.75,23.77Z"/><polygon class="cls-9" points="39.17 26.86 39.19 27.88 46.36 28.29 46.42 27.28 39.17 26.86"/><polygon class="cls-9" points="78.97 26.95 73.19 27.28 73.25 28.29 78.97 27.96 78.97 26.95"/><path class="cls-9" d="M57.7,28.65l-.6-.82a4.7,4.7,0,0,1,5.47-.09l-.6.81A3.71,3.71,0,0,0,57.7,28.65Z"/><path class="cls-7" d="M60,50.65a7.74,7.74,0,0,1-4.18-1.1.53.53,0,1,1,.54-.92,7.26,7.26,0,0,0,7.11,0,.53.53,0,0,1,.55.91A8.89,8.89,0,0,1,60,50.65Z"/><path class="cls-10" d="M67.82,40.07a8,8,0,0,1-.11,1.4,7.84,7.84,0,0,1-13.43,4,7.75,7.75,0,0,1-2-3.89,8.1,8.1,0,0,1-.14-1.4v-.07L67.82,40Z"/><path class="cls-3" d="M67.82,40.07a8,8,0,0,1-.11,1.4L52.3,41.6a8.1,8.1,0,0,1-.14-1.4v-.07L67.82,40Z"/><path class="cls-11" d="M65.79,45.4a7.84,7.84,0,0,1-11.51.09,8.58,8.58,0,0,1,11.51-.09Z"/><path class="cls-9" d="M55.25,29.63a3.24,3.24,0,0,0-3.23-3c-2.6,0-3.36,2.86-3.36,2.86S51.62,25.72,55.25,29.63Z"/><path class="cls-9" d="M64.52,29.63a3.25,3.25,0,0,1,3.24-3c2.6,0,3.36,2.86,3.36,2.86S68.16,25.72,64.52,29.63Z"/><image width="310" height="163" transform="translate(36.78 89.61) scale(0.04 0.05)" xlink:href="../../../download%20(1).png"/></g></g></svg>