<svg xmlns="http://www.w3.org/2000/svg" xmlns:xlink="http://www.w3.org/1999/xlink" viewBox="0 0 129.6 367.35"><defs><style>.cls-1{fill:#ffaf82;}.cls-2{fill:#f88968;}.cls-3{fill:#040273;}.cls-4{fill:#050705;}.cls-5{fill:#de9d01;}.cls-6{fill:#bf8005;}.cls-7{fill:#fff;}.cls-8{fill:#2c2c2c;}.cls-9{fill:#32324c;}</style></defs><g id="Laag_2" data-name="Laag 2"><g id="OBJECTS"><path class="cls-1" d="M109.56,169.26a35.6,35.6,0,0,1,6.4,2c2.86,1.31,6.29,3,8,3.82,2.11,1,.28,2.88-2.71,1.64s-3.68-1.5-3.68-1.5,10,7.51,11.73,10.42c1.55,2.65-4.19-1.22-9.11-4.15,0,0,8.42,8.94,7.91,11-.69,2.65-10.86-8.2-10.86-8.2s6.31,9.12,5.12,9.72-8.93-7.87-8.93-7.87,3.78,6.64,2.84,6.76c-1.85.23-12.6-12-13-19.43C103.35,173.46,107.75,169.25,109.56,169.26Z"/><path class="cls-2" d="M119.32,179s-3.38,4.81-8.78,5.63C110.54,184.66,115.82,186.33,119.32,179Z"/><path class="cls-2" d="M113.35,179.08s-6.37-2.59-3.93-8.15C109.42,170.93,104.66,176.3,113.35,179.08Z"/><path class="cls-3" d="M87.37,128C82.52,86.24,73.08,69.53,73.08,69.53c-8.55,35-1.88,54,1,63.06s29.28,42,29.28,42a14,14,0,0,1,7.39-5s-8.37-14.75-11.34-20.28S87.37,128,87.37,128Z"/><path class="cls-4" d="M85.38,265.49l-6.7,80.95H66.87c-2.73-31.55-7.14-59.19-2.17-80.95C59.69,241,56,185.28,56,185.28c9-4.12,23.46-7.89,23.46-7.89C84.22,204.62,85.38,265.49,85.38,265.49Z"/><path class="cls-5" d="M106.1,365.52H67.48a3.57,3.57,0,0,1-3.54-3.1,3.12,3.12,0,0,1,0-.75l1.57-20.28a22.08,22.08,0,0,1,3.86-1.28,3.88,3.88,0,0,0,2.86-2.6,2.45,2.45,0,0,0,.08-.29c.89-3.9,6.52-5.15,7.56-1.33.13.49.25,1,.35,1.43,0,.12,0,.23.07.34.17.82.29,1.58.37,2.24a.06.06,0,0,0,0,0,21.44,21.44,0,0,1,.19,2.76l1.48,1.91.72.93c.5.66,1,1.31,1.48,1.92l.67.85c.54.67,1.07,1.31,1.6,1.9q.34.41.72.78c2,2.1,4,3.53,6.37,3.86,4.19.57,11,1,14.33,7.18a2.2,2.2,0,0,1,.17.39A2.38,2.38,0,0,1,106.1,365.52Z"/><path class="cls-6" d="M106.1,365.52H67.48a3.57,3.57,0,0,1-3.54-3.1h44.43A2.38,2.38,0,0,1,106.1,365.52Z"/><path class="cls-7" d="M83,345.54a6.68,6.68,0,0,1-3.2,2.19c-.31.13-.65.25-1,.37l-.34-1c.37-.12.7-.24,1-.36,2.11-.85,2.69-1.69,2.84-2.12Z"/><circle class="cls-7" cx="78.64" cy="347.6" r="1.2"/><path class="cls-7" d="M85.18,348.31A7.48,7.48,0,0,1,82.54,350c-.37.16-.77.3-1.22.45l-.34-1c.42-.14.8-.27,1.13-.41a6,6,0,0,0,2.4-1.55Z"/><path class="cls-7" d="M82.54,349.93a1.2,1.2,0,1,1-1.2-1.2A1.2,1.2,0,0,1,82.54,349.93Z"/><path class="cls-7" d="M87.5,351a7.58,7.58,0,0,1-2.56,1.6c-.38.16-.79.31-1.25.46l-.33-1c.43-.14.8-.28,1.14-.42a6.68,6.68,0,0,0,2.28-1.41Q87.13,350.62,87.5,351Z"/><path class="cls-7" d="M84.94,352.55a1.2,1.2,0,1,1-1.2-1.2A1.19,1.19,0,0,1,84.94,352.55Z"/><path class="cls-7" d="M80.63,339.9a26.47,26.47,0,0,0-3.44.19l0-1.93a8.8,8.8,0,0,1,3.05-.5C80.43,338.48,80.55,339.24,80.63,339.9Z"/><path class="cls-8" d="M49.61,185.28s-.3,32.14-4.86,80.21c-3,26.2-6.28,59.07-10,80.95H23L21.3,265.49s-2.71-49.81,3.17-84.13Z"/><path class="cls-5" d="M45.15,362.82c-.34,6.8-21.61,4.46-25,2.42-1.31-.79-1.86-2.31-2-4.15-.17-2.94.8-6.69,1.63-9.64,1.36-4.79,1.18-4.7,2.12-8,0,0-.24-5.33,6.73-7.36s9.53,11.23,10.72,13.78c1.09,2.34,5.32,5.54,5.76,11.29A12.71,12.71,0,0,1,45.15,362.82Z"/><path class="cls-7" d="M24.86,347.78l-.55-.86c.26-.17,6.41-4.11,11.76-1.76l-.41.93C30.81,344,24.92,347.74,24.86,347.78Z"/><path class="cls-7" d="M25.47,353.7l-.56-.86c.26-.17,6.41-4.11,11.77-1.76l-.41.93C31.41,349.88,25.53,353.66,25.47,353.7Z"/><path class="cls-7" d="M25.17,350.74l-.56-.86c.26-.17,6.41-4.11,11.76-1.76l-.41.93C31.11,346.92,25.23,350.7,25.17,350.74Z"/><path class="cls-7" d="M25.67,347.51a1.15,1.15,0,1,1-1.15-1.15A1.15,1.15,0,0,1,25.67,347.51Z"/><path class="cls-7" d="M25.73,350.32a1.15,1.15,0,1,1-1.15-1.15A1.14,1.14,0,0,1,25.73,350.32Z"/><path class="cls-7" d="M26.34,353.12a1.15,1.15,0,0,1-2.3,0,1.15,1.15,0,0,1,2.3,0Z"/><path class="cls-7" d="M37.62,351.46a1.15,1.15,0,1,1-1.15-1.14A1.14,1.14,0,0,1,37.62,351.46Z"/><path class="cls-7" d="M37.32,348.4a1.15,1.15,0,1,1-1.15-1.15A1.15,1.15,0,0,1,37.32,348.4Z"/><path class="cls-7" d="M37,345.34a1.15,1.15,0,1,1-1.14-1.15A1.15,1.15,0,0,1,37,345.34Z"/><path class="cls-6" d="M45.15,362.82c-.34,6.8-21.61,4.46-25,2.42-1.31-.79-1.86-2.31-2-4.15a25.08,25.08,0,0,0,12,3c7.22.13,12.43-1.33,14.91-2.88A12.71,12.71,0,0,1,45.15,362.82Z"/><path class="cls-7" d="M31.66,338.21a11.38,11.38,0,0,0-6,1.19l.31,2.16a23.49,23.49,0,0,1,6.41-1A5.06,5.06,0,0,0,31.66,338.21Z"/><path class="cls-8" d="M26.14,172.94s-4,14.16-4,26.78c0,0,19.6,8.58,44.54-.9A20.1,20.1,0,0,0,78.44,173.3l-.13-.36S46.42,171.63,26.14,172.94Z"/><path class="cls-3" d="M85.38,181.11a103.66,103.66,0,0,1-12.76,5c-1.17.36-2.36.71-3.56,1a78.29,78.29,0,0,1-19.38,2.82,58.5,58.5,0,0,1-32.07-8.58l6.91-41.11L13.08,73.39,30.2,67.52l.92-.31,1.69-.58.71-.25L35,65.89l3.05-1,18.11,2.42,1.09.14,1.86.25,1,.14,13,1.73Z"/><path class="cls-9" d="M75.46,16.12s4.59,3,2.94,11.25-4.82,9.09-4.82,9.09S68.76,18.26,75.46,16.12Z"/><path class="cls-1" d="M54.35,54.53l-.58,10.4-.27,4.76C47.51,74.12,37.78,68,37.78,68l-1-15.41c2.77-1.87,9.91-.32,14.2.87C53,54.06,54.35,54.53,54.35,54.53Z"/><path class="cls-2" d="M54.35,54.53l-.58,10.4c-7-1.63-12.92-11.37-12.92-11.37l10.09-.07C53,54.06,54.35,54.53,54.35,54.53Z"/><path class="cls-9" d="M74.53,20.31s11.22-5.22,7.93-14.43S65.75.91,53.69,1.37c-19.43.74-25.51,10.84-25,21.37s.38,24.62,5.15,29.89,8-2.18,10.49-8.76S62,17.14,74.53,20.31Z"/><path class="cls-1" d="M75.55,29.26l0,1.08a162.24,162.24,0,0,1-2.43,20.93,12.33,12.33,0,0,1-14.6,10c-8.21-1.66-18.33-4.17-23-7.21-1.4-.92-2.29-1.89-2.47-2.9a69.42,69.42,0,0,1-.75-9.06c-.32-10.59.45-23.81.45-23.81C42.64,6,70.13,10.83,74.32,19.79,75.27,21.84,75.6,25.24,75.55,29.26Z"/><path class="cls-9" d="M59.25,35.18c0,1.37-.62,2.49-1.37,2.49s-1.37-1.12-1.37-2.49.61-2.5,1.37-2.5S59.25,33.8,59.25,35.18Z"/><path class="cls-9" d="M73.27,35.18c0,1.37-.61,2.49-1.37,2.49s-1.37-1.12-1.37-2.49.62-2.5,1.37-2.5S73.27,33.8,73.27,35.18Z"/><path class="cls-9" d="M32.28,32.4s4.39-2.86,8.09,2.25h2.87s-.16-5.91,1.24-9.12,6.9-3.12,7.72-6.9c0,0,13,5.17,22.33,1.68S55.9,1.28,42.42,8.84,30.18,22.34,32.28,32.4Z"/><path class="cls-9" d="M51.94,31.72a6.9,6.9,0,0,1,3.85-3.38,6.43,6.43,0,0,1,4.85.43.83.83,0,0,1,.38,1h0a.84.84,0,0,1-1.14.47C58.46,29.61,55.33,28.76,51.94,31.72Z"/><path class="cls-9" d="M75.55,29.26l0,1.08a6.77,6.77,0,0,0-5.88-.07.73.73,0,0,1-.36.08.85.85,0,0,1-.41-1.58,6.46,6.46,0,0,1,4.86-.43A5,5,0,0,1,75.55,29.26Z"/><path class="cls-9" d="M35.54,54.07c-1.4-.92-2.29-1.89-2.47-2.9a69.42,69.42,0,0,1-.75-9.06l7.26,5S39.68,52.27,35.54,54.07Z"/><path class="cls-1" d="M40.37,34.65S36,29.31,32.28,32.4c-4.07,3.41-1,15,7.3,14.7Z"/><path class="cls-2" d="M39.78,44.59a.72.72,0,0,1-.72-.64c-.67-5.84-4.14-6.74-4.28-6.78a.72.72,0,0,1-.54-.87.71.71,0,0,1,.86-.54c.19,0,4.61,1.1,5.41,8a.73.73,0,0,1-.64.8Z"/><path class="cls-2" d="M35.15,40.89a.7.7,0,0,1-.49-.19.73.73,0,0,1-.06-1,4.16,4.16,0,0,1,3.88-1.12A.73.73,0,1,1,38.17,40a2.64,2.64,0,0,0-2.48.67A.75.75,0,0,1,35.15,40.89Z"/><path class="cls-2" d="M66.05,49.84A13,13,0,0,1,56,45.46a.73.73,0,0,1,.07-1,.74.74,0,0,1,1,.07C61.81,50,69.26,48,69.33,48a.73.73,0,0,1,.89.51.72.72,0,0,1-.5.89A14.87,14.87,0,0,1,66.05,49.84Z"/><path class="cls-2" d="M63,53.35a7.21,7.21,0,0,1-5.66-2.53A.73.73,0,0,1,58.46,50a6,6,0,0,0,5.79,1.84.73.73,0,1,1,.24,1.43A9.41,9.41,0,0,1,63,53.35Z"/><path class="cls-2" d="M65.85,43.19a.75.75,0,0,1-.58-.28.73.73,0,0,1,.14-1l1.94-1.48L65.67,40a.73.73,0,0,1-.54-.58l-.74-4.63a.73.73,0,0,1,1.44-.23l.66,4.16,2.67.69a.73.73,0,0,1,.26,1.28L66.29,43A.71.71,0,0,1,65.85,43.19Z"/><path class="cls-1" d="M25.45,185.14s3.23,1,4.2,2.91c0,0,0,11.95-6,17.16,0,0-3-7.19-6-14.07Z"/><path class="cls-3" d="M13.08,73.39S1.06,110.94,0,130.25c0,0,0,36.12,17.62,60.89l7.83-6s-9.87-35.94-9.87-49.95c0,0,10-26,11.64-36.28C27.22,98.91,20.49,73.39,13.08,73.39Z"/><image width="318" height="159" transform="translate(27.22 94.54) scale(0.05 0.06)" xlink:href="../../../download%20(3).png"/></g></g></svg>