<svg xmlns="http://www.w3.org/2000/svg" xmlns:xlink="http://www.w3.org/1999/xlink" viewBox="0 0 111.81 317.73"><defs><style>.cls-1{fill:#2c2c2c;}.cls-2{fill:#fff;}.cls-3{fill:#040273;}.cls-4{fill:#d37157;}.cls-5,.cls-7{fill:#b55441;}.cls-6{fill:#c4614d;}.cls-7{opacity:0.5;}</style></defs><g id="Laag_2" data-name="Laag 2"><g id="OBJECTS"><path class="cls-1" d="M27.39,178.25a64.48,64.48,0,0,1,3-20.6c19.8-1.28,50.94,0,50.94,0l.13.36s3.2,11.25,1.33,20.24C63.53,190.18,45,189.39,27.39,178.25Z"/><path class="cls-1" d="M28.24,166.88c-1.8,8.61-3.65,72-3.58,74l-2.94,58.92L32.54,301c1.88-14.34,6.6-36.45,7-56.63l13-74.92C43.25,166.78,35.46,165.87,28.24,166.88Z"/><path d="M33.15,299.52a6.36,6.36,0,0,0-8.33-5.75c-4,1.08-4.44,7.69-4.44,7.69a20.76,20.76,0,0,0-5.89,11.91c0,.17-.05.34-.07.52a2.68,2.68,0,0,0,2.22,2.93,59.41,59.41,0,0,0,20.43.05,2.67,2.67,0,0,0,2.17-2.95c0-.05,0-.11,0-.16-.45-3.36-1.36-9.54-5.48-11.83Z"/><path class="cls-2" d="M31.59,304.64l.35-.81c-.24-.11-6.07-2.61-10.32.16l.48.74C26,302.22,31.53,304.61,31.59,304.64Z"/><path class="cls-2" d="M30.86,304.52a1,1,0,1,0,.82-1.14A1,1,0,0,0,30.86,304.52Z"/><path class="cls-2" d="M20.84,304.28a1,1,0,1,0,.82-1.14A1,1,0,0,0,20.84,304.28Z"/><path class="cls-2" d="M31.49,302.13l.35-.81c-.24-.1-6.07-2.6-10.32.17l.48.74C25.85,299.72,31.43,302.11,31.49,302.13Z"/><path class="cls-2" d="M30.76,302a1,1,0,1,0,.81-1.15A1,1,0,0,0,30.76,302Z"/><path class="cls-2" d="M20.74,301.78a1,1,0,1,0,.82-1.15A1,1,0,0,0,20.74,301.78Z"/><path class="cls-2" d="M31.59,307.13l.35-.81c-.24-.11-6.07-2.61-10.32.17l.48.74C26,304.71,31.53,307.11,31.59,307.13Z"/><path class="cls-2" d="M30.86,307a1,1,0,1,0,.82-1.15A1,1,0,0,0,30.86,307Z"/><path class="cls-2" d="M20.84,306.78a1,1,0,1,0,.82-1.15A1,1,0,0,0,20.84,306.78Z"/><path class="cls-2" d="M24.25,296.63a8,8,0,0,1,5.54.22,2.85,2.85,0,0,1,0,2,20.44,20.44,0,0,0-5.63-.12A3.11,3.11,0,0,1,24.25,296.63Z"/><path d="M16.64,316.82a59.41,59.41,0,0,0,20.43.05,2.67,2.67,0,0,0,2.17-2.95c0-.05,0-.11,0-.16a44.48,44.48,0,0,1-24.73-.39c0,.17-.05.34-.07.52A2.68,2.68,0,0,0,16.64,316.82Z"/><path class="cls-1" d="M82.87,165c1.32,7.7,4.47,73.87,4.4,75.87l2.94,58.92L79.39,301c-1.89-14.34-6.6-36.45-7-56.63L59.61,168.6Z"/><path d="M78.77,299.52a6.37,6.37,0,0,1,8.34-5.75c4,1.08,4.43,7.69,4.43,7.69a20.69,20.69,0,0,1,5.89,11.91c0,.17.06.34.08.52a2.68,2.68,0,0,1-2.22,2.93,59.41,59.41,0,0,1-20.43.05,2.66,2.66,0,0,1-2.17-2.95c0-.05,0-.11,0-.16.44-3.36,1.36-9.54,5.48-11.83Z"/><path class="cls-2" d="M80.34,304.64l-.36-.81c.25-.11,6.08-2.61,10.33.16l-.49.74C86,302.22,80.4,304.61,80.34,304.64Z"/><path class="cls-2" d="M81.07,304.52a1,1,0,1,1-.82-1.14A1,1,0,0,1,81.07,304.52Z"/><path class="cls-2" d="M91.09,304.28a1,1,0,1,1-.82-1.14A1,1,0,0,1,91.09,304.28Z"/><path class="cls-2" d="M80.44,302.13l-.35-.81c.24-.1,6.07-2.6,10.32.17l-.48.74C86.07,299.72,80.5,302.11,80.44,302.13Z"/><path class="cls-2" d="M81.17,302a1,1,0,1,1-.82-1.15A1,1,0,0,1,81.17,302Z"/><path class="cls-2" d="M91.19,301.78a1,1,0,1,1-2-.33,1,1,0,0,1,2,.33Z"/><path class="cls-2" d="M80.34,307.13l-.36-.81c.25-.11,6.08-2.61,10.33.17l-.49.74C86,304.71,80.4,307.11,80.34,307.13Z"/><path class="cls-2" d="M81.07,307a1,1,0,1,1-.82-1.15A1,1,0,0,1,81.07,307Z"/><path class="cls-2" d="M91.09,306.78a1,1,0,1,1-.82-1.15A1,1,0,0,1,91.09,306.78Z"/><path class="cls-2" d="M87.68,296.63a8.06,8.06,0,0,0-5.55.22,2.91,2.91,0,0,0,0,2,20.39,20.39,0,0,1,5.62-.12A3.15,3.15,0,0,0,87.68,296.63Z"/><path d="M95.29,316.82a59.41,59.41,0,0,1-20.43.05,2.66,2.66,0,0,1-2.17-2.95c0-.05,0-.11,0-.16a44.45,44.45,0,0,0,24.72-.39c0,.17.06.34.08.52A2.68,2.68,0,0,1,95.29,316.82Z"/><path class="cls-3" d="M28.66,162.73c17.09,10.53,35.6,13,54.61,0l-1-31.63.26-58.37L63.21,67.53a28.9,28.9,0,0,0-15,0L28.93,72.71l.26,58.37Z"/><path class="cls-4" d="M99.35,169a55.58,55.58,0,0,1-2.14,5.83c-1.13,2.46-.36,4.36-1,6.57s2,2.06,2.48-.27.3-3.43.78-3.5,1.87,5.59,2.07,7.22-.13,5.7.48,6.34,2.07-1.66,1.61-5.9-.13-4.15-.13-4.15.41,1.64.83,3.41a19.12,19.12,0,0,1,.34,5.14c-.08,1.21,1.15,1.81,1.52,1.16a15.52,15.52,0,0,0,.45-6.52c-.49-1.64-1.09-4.48-1.09-4.48s1.63,3.8,1.9,4.78-.18,4.71.67,5.4c.36.28,1.49-.1,1.3-5.42a29.6,29.6,0,0,0-1-4.21,9.31,9.31,0,0,1,1.29,2.82,26,26,0,0,1,.71,4.35c.12,1.44,1.37,1.25,1.37-1.29a16.82,16.82,0,0,0-1.14-6.69c-.71-1.35-1.75-9.26-3.86-12.16Z"/><path class="cls-3" d="M77,88.46s4.57,24,9.66,33.72c0,0,2.8,13.7,12.54,47.33,0,0,5.08,2,8-1.84,0,0-4.7-37-7.54-48.79,0,0-13-40.84-17.21-46.1A34.78,34.78,0,0,0,77,88.46Z"/><path class="cls-4" d="M12.46,169a54.23,54.23,0,0,0,2.15,5.83c1.12,2.46.35,4.36,1,6.57s-2,2.06-2.49-.27-.29-3.43-.78-3.5-1.87,5.59-2.07,7.22.14,5.7-.47,6.34-2.08-1.66-1.62-5.9.13-4.15.13-4.15-.4,1.64-.82,3.41a19.17,19.17,0,0,0-.35,5.14c.08,1.21-1.15,1.81-1.52,1.16a15.52,15.52,0,0,1-.45-6.52c.49-1.64,1.09-4.48,1.09-4.48s-1.62,3.8-1.9,4.78.19,4.71-.67,5.4c-.35.28-1.49-.1-1.29-5.42a29.6,29.6,0,0,1,.95-4.21,9.47,9.47,0,0,0-1.3,2.82,27,27,0,0,0-.71,4.35C1.25,189,0,188.81,0,186.27a17,17,0,0,1,1.14-6.69c.71-1.35,1.75-9.26,3.87-12.16Z"/><path class="cls-3" d="M34.85,88.46s-4.56,24-9.66,33.72c0,0-2.8,13.7-12.54,47.33,0,0-5.08,2-8-1.84,0,0,4.71-37,7.54-48.79,0,0,12.52-40.91,16.79-46.17A33.1,33.1,0,0,1,34.85,88.46Z"/><path class="cls-1" d="M43.5,56.43c-8.35,2.11-10.82-6.75-10.82-6.75-7-2-5.47-9.41-5.47-9.41s-2.57-.82-3.31-5.67a6,6,0,0,1,3-6.56S22.34,24,24.38,19s7.56-3.39,7.56-3.39-2-6.68,2.62-9.44c5.57-3.36,9.33.7,9.33.7a7,7,0,0,1,5-6.48C55.06-1.48,59,4.51,59,4.51S62,1,65.81,1.32c6,.5,5.33,5.79,5.33,5.79,1.84-1.78,7.24-.4,8.17,4.12.73,3.49-.59,5.11-.59,5.11s5.53.32,4.91,6.62c-.28,2.86-2.55,3.7-3.88,4.73,0,0,3.79.15,3.7,5.26s-3.17,5.85-3.17,5.85,1.83,2.42,0,7.35-5.11,4.56-5.11,4.56-1.59,5.64-7.16,6.65C57.21,59.34,43.5,56.43,43.5,56.43Z"/><path class="cls-4" d="M63.19,59.36l-.26,4.92-.33,6.17s-1.22,2.33-6.75,2.33-6.66-1.59-6.66-1.59L49,68.45l-.75-9.09Z"/><path class="cls-5" d="M63.19,59.36l-.26,4.92c-2.3,1.73-7.76,5.13-14,4.17l-.75-9.09Z"/><path class="cls-6" d="M38.78,37s-4.24-4.14-7.62-1.44c-4,3.2.18,14.69,7.27,13.48Z"/><path class="cls-5" d="M36.31,46.15a.71.71,0,0,1-.68-.65c-.45-5.66-3.77-6.64-3.91-6.68a.7.7,0,0,1,.36-1.35c.18,0,4.41,1.22,5,7.92a.7.7,0,0,1-.64.75Z"/><path class="cls-5" d="M32.34,43.26a.67.67,0,0,1-.45-.19.7.7,0,0,1,0-1,4,4,0,0,1,3.78-1,.7.7,0,1,1-.35,1.36,2.55,2.55,0,0,0-2.41.56A.71.71,0,0,1,32.34,43.26Z"/><path class="cls-6" d="M71.14,37s4.24-4.14,7.62-1.44c4,3.2-.18,14.69-7.27,13.48Z"/><path class="cls-5" d="M73.62,46.15a.71.71,0,0,0,.67-.65c.46-5.66,3.77-6.64,3.91-6.68a.7.7,0,0,0,.49-.86.69.69,0,0,0-.85-.49c-.18,0-4.41,1.22-5,7.92a.7.7,0,0,0,.65.75Z"/><path class="cls-5" d="M77.58,43.26a.7.7,0,0,0,.48-1.18,4,4,0,0,0-3.78-1,.71.71,0,0,0-.5.86.7.7,0,0,0,.85.5,2.57,2.57,0,0,1,2.42.56A.67.67,0,0,0,77.58,43.26Z"/><path class="cls-4" d="M75.13,33.71c-.07.79-.15,1.61-.25,2.44-1.43,12.56-6,28.05-19.71,28.05C42,64.2,37,50.12,35.18,38c-.2-1.35-.36-2.67-.5-3.95A20.06,20.06,0,0,1,54.34,11.88H55.4A20.1,20.1,0,0,1,75.13,33.71Z"/><path class="cls-1" d="M50.34,28.79v2.53s-4.63-.84-7.77,1.11l-.37-2.11S44.85,27.68,50.34,28.79Z"/><path class="cls-1" d="M59.91,28.79v2.53s4.63-.84,7.78,1.11l.36-2.11S65.41,27.68,59.91,28.79Z"/><path class="cls-1" d="M48.89,36.15c0,1.46-.65,2.65-1.46,2.65S46,37.61,46,36.15s.65-2.65,1.45-2.65S48.89,34.69,48.89,36.15Z"/><path class="cls-1" d="M62,36.15c0,1.46.65,2.65,1.46,2.65s1.45-1.19,1.45-2.65-.65-2.65-1.45-2.65S62,34.69,62,36.15Z"/><path class="cls-5" d="M55.21,45.93a.78.78,0,0,1-.58-.37.76.76,0,0,1,.25-1.06l2.2-1.36-1.73-.63a.77.77,0,0,1-.5-.68l-.3-5a.76.76,0,0,1,.72-.81.77.77,0,0,1,.82.72l.27,4.46,2.74,1a.77.77,0,0,1,.14,1.38l-3.55,2.19A.77.77,0,0,1,55.21,45.93Z"/><path class="cls-5" d="M58.47,52.37A13.47,13.47,0,0,1,48.21,50.5a.77.77,0,0,1,.84-1.28c6.42,4.21,13.41.09,13.48.05a.77.77,0,0,1,1,.26.78.78,0,0,1-.26,1.06A16.75,16.75,0,0,1,58.47,52.37Z"/><path class="cls-5" d="M55.85,56.43a7.84,7.84,0,0,1-4.25-1.12.54.54,0,0,1-.18-.74.53.53,0,0,1,.73-.18,7.39,7.39,0,0,0,7.23,0,.55.55,0,0,1,.74.18.54.54,0,0,1-.19.74A8.77,8.77,0,0,1,55.85,56.43Z"/><path class="cls-7" d="M48.22,44.46c0,2.07-2.31,3.74-5.15,3.74s-5.16-1.67-5.16-3.74,2.31-3.74,5.16-3.74S48.22,42.39,48.22,44.46Z"/><path class="cls-7" d="M72.89,44.46c0,2.07-2.31,3.74-5.15,3.74s-5.16-1.67-5.16-3.74,2.31-3.74,5.16-3.74S72.89,42.39,72.89,44.46Z"/><path class="cls-1" d="M75.13,33.71c-.07.79-.15,1.61-.25,2.44-3.07-1.88-2.43-7.24-2.43-7.24-2-1.33-2-4.49-2-4.49-3.93,0-4.5-4.19-4.5-4.19A6.8,6.8,0,0,1,59,17c-4.63,6.13-9.58,1.28-10.79,0,.9,4.84-7.19,6.83-8,6.49,1.25,4.11-3.19,7-3.19,7C38.69,34.61,35.18,38,35.18,38c-.2-1.35-.36-2.67-.5-3.95A20.06,20.06,0,0,1,54.34,11.88H55.4A20.1,20.1,0,0,1,75.13,33.71Z"/><image width="241" height="209" transform="translate(62.49 87.25) scale(0.05 0.03)" xlink:href="../../../download.png"/></g></g></svg>