<svg xmlns="http://www.w3.org/2000/svg" xmlns:xlink="http://www.w3.org/1999/xlink" viewBox="0 0 124.9 363.03"><defs><style>.cls-1{fill:#32324c;}.cls-2{fill:#3555af;}.cls-3{fill:#fff;}.cls-4{fill:#3986d7;}.cls-5{fill:#040273;}.cls-6{fill:#ffaf82;}.cls-7{fill:#ffa378;}.cls-8{fill:#f88968;}.cls-9{fill:#920e08;}.cls-10{fill:#f85c66;}</style></defs><g id="Laag_2" data-name="Laag 2"><g id="OBJECTS"><path class="cls-1" d="M32.86,181A67.05,67.05,0,0,1,36,159.54c20.6-1.33,53,0,53,0l.13.37A77.84,77.84,0,0,1,90.52,181C70.48,193.39,51.16,192.57,32.86,181Z"/><path class="cls-1" d="M90.52,181s4.82,68,4.3,83l4,79.14-13.17-.78c-2.31-40.83-10-59.33-7.6-77.84-7.37-24.29-11.21-53.08-12.44-76C65.59,188.55,77.33,181.24,90.52,181Z"/><path class="cls-2" d="M85.16,341.71c.37-5.21,5-8,9.76-6.74s5.19,9,5.19,9a24.33,24.33,0,0,1,6.9,13.95c0,.19.06.39.08.6a3.13,3.13,0,0,1-2.6,3.43,69.63,69.63,0,0,1-23.92.06A3.1,3.1,0,0,1,78,358.57c0-.06,0-.12,0-.19.52-3.94,1.59-11.17,6.41-13.85Z"/><path class="cls-3" d="M87,347.7l-.42-.95c.29-.13,7.12-3.05,12.09.19l-.56.87C93.59,344.87,87.06,347.67,87,347.7Z"/><path class="cls-3" d="M87.85,347.57a1.17,1.17,0,1,1-1-1.35A1.18,1.18,0,0,1,87.85,347.57Z"/><path class="cls-3" d="M99.58,347.29a1.18,1.18,0,0,1-1.35,1,1.17,1.17,0,0,1,.39-2.31A1.18,1.18,0,0,1,99.58,347.29Z"/><path class="cls-3" d="M87.11,344.77l-.42-.95c.29-.13,7.12-3.05,12.09.19l-.57.87C93.7,341.94,87.17,344.74,87.11,344.77Z"/><path class="cls-3" d="M88,344.64a1.17,1.17,0,0,1-1.34,1,1.17,1.17,0,0,1,.39-2.31A1.17,1.17,0,0,1,88,344.64Z"/><path class="cls-3" d="M99.7,344.36a1.17,1.17,0,1,1-1-1.35A1.18,1.18,0,0,1,99.7,344.36Z"/><path class="cls-3" d="M87,350.62l-.42-.95c.29-.13,7.12-3.05,12.09.19l-.56.87C93.59,347.79,87.06,350.59,87,350.62Z"/><path class="cls-3" d="M87.85,350.49a1.17,1.17,0,1,1-1-1.35A1.18,1.18,0,0,1,87.85,350.49Z"/><path class="cls-3" d="M99.58,350.21a1.18,1.18,0,0,1-1.35,1,1.17,1.17,0,0,1,.39-2.31A1.18,1.18,0,0,1,99.58,350.21Z"/><path class="cls-3" d="M95.59,338.32a9.49,9.49,0,0,0-6.5.26,3.4,3.4,0,0,0,0,2.4,24.1,24.1,0,0,1,6.58-.16A3.67,3.67,0,0,0,95.59,338.32Z"/><path class="cls-4" d="M104.49,362a69.63,69.63,0,0,1-23.92.06A3.1,3.1,0,0,1,78,358.57c0-.06,0-.12,0-.19a52.17,52.17,0,0,0,29-.45c0,.19.06.39.08.6A3.13,3.13,0,0,1,104.49,362Z"/><path class="cls-1" d="M32.86,181s-4.36,68-3.84,83l-4,79.14,13.16-.78c.8-30.91,11.14-55.83,7.61-77.84,6.57-21.26,10-50.55,11.27-76C57.08,188.55,46.06,181.24,32.86,181Z"/><path class="cls-2" d="M38.68,341.71c-.37-5.21-5-8-9.76-6.74s-5.19,9-5.19,9a24.33,24.33,0,0,0-6.9,13.95c0,.19-.06.39-.08.6a3.12,3.12,0,0,0,2.6,3.43,69.63,69.63,0,0,0,23.92.06,3.1,3.1,0,0,0,2.53-3.45c0-.06,0-.12,0-.19-.52-3.94-1.59-11.17-6.41-13.85Z"/><path class="cls-3" d="M36.85,347.7l.41-.95c-.28-.13-7.11-3.05-12.08.19l.56.87C30.25,344.87,36.78,347.67,36.85,347.7Z"/><path class="cls-3" d="M36,347.57a1.18,1.18,0,0,0,1.35,1,1.17,1.17,0,0,0-.39-2.31A1.18,1.18,0,0,0,36,347.57Z"/><path class="cls-3" d="M24.26,347.29a1.17,1.17,0,1,0,1-1.35A1.18,1.18,0,0,0,24.26,347.29Z"/><path class="cls-3" d="M36.73,344.77l.41-.95c-.28-.13-7.11-3.05-12.08.19l.56.87C30.13,341.94,36.66,344.74,36.73,344.77Z"/><path class="cls-3" d="M35.87,344.64a1.17,1.17,0,1,0,1-1.35A1.18,1.18,0,0,0,35.87,344.64Z"/><path class="cls-3" d="M24.14,344.36a1.17,1.17,0,1,0,1-1.35A1.18,1.18,0,0,0,24.14,344.36Z"/><path class="cls-3" d="M36.85,350.62l.41-.95c-.28-.13-7.11-3.05-12.08.19l.56.87C30.25,347.79,36.78,350.59,36.85,350.62Z"/><path class="cls-3" d="M36,350.49a1.18,1.18,0,0,0,1.35,1,1.17,1.17,0,0,0-.39-2.31A1.18,1.18,0,0,0,36,350.49Z"/><path class="cls-3" d="M24.26,350.21a1.17,1.17,0,1,0,1-1.35A1.18,1.18,0,0,0,24.26,350.21Z"/><path class="cls-3" d="M28.25,338.32a9.49,9.49,0,0,1,6.5.26,3.46,3.46,0,0,1,0,2.4,24.1,24.1,0,0,0-6.58-.16A3.67,3.67,0,0,1,28.25,338.32Z"/><path class="cls-4" d="M19.35,362a69.63,69.63,0,0,0,23.92.06,3.1,3.1,0,0,0,2.53-3.45c0-.06,0-.12,0-.19a52.17,52.17,0,0,1-28.95-.45c0,.19-.06.39-.08.6A3.12,3.12,0,0,0,19.35,362Z"/><path class="cls-5" d="M83.46,120.63l6.48,39.73S76.81,167,61.78,167A55.05,55.05,0,0,1,35,160.36l6.48-39.73-.86-17.26c-5.21-3.92-3.42-14.54-3.42-14.54L35,72.85l20.52-8.73L68.69,64l21.37,8-2.31,16.9s2.2,9.82-2.83,14.4Z"/><path d="M80.7,105s-14.5,10.25-35.38.62c0,0,19.5,5.25,35.38-.62"/><path class="cls-6" d="M14,184.14a61.55,61.55,0,0,0,2.42,6.57c1.27,2.77.4,4.9,1.16,7.4s-2.22,2.31-2.8-.31-.33-3.86-.88-3.94-2.1,6.3-2.33,8.13.15,6.42-.53,7.14-2.34-1.87-1.82-6.65.14-4.67.14-4.67-.45,1.85-.92,3.85a21.2,21.2,0,0,0-.39,5.78c.09,1.36-1.3,2-1.71,1.31s-1.06-5.48-.51-7.34,1.22-5,1.22-5-1.82,4.28-2.14,5.38.21,5.31-.75,6.08c-.4.32-1.67-.11-1.46-6.1A33.34,33.34,0,0,1,3.8,197a10.58,10.58,0,0,0-1.46,3.17,29.42,29.42,0,0,0-.79,4.9C1.41,206.67,0,206.46,0,203.6s.48-6,1.28-7.54,2-10.42,4.36-13.69Z"/><path class="cls-5" d="M41,88.76s-7.07,32.69-12.8,43.66c0,0-2.94,14.43-13.91,52.3,0,0-5.73,2.28-9.07-2.07,0,0,6.14-41.82,9.33-55.13,0,0,10.33-46.9,20.46-54.67A29,29,0,0,1,41,88.76Z"/><path class="cls-6" d="M110.87,184.14a61.55,61.55,0,0,1-2.42,6.57c-1.27,2.77-.4,4.9-1.16,7.4s2.22,2.31,2.8-.31.33-3.86.87-3.94,2.11,6.3,2.33,8.13-.15,6.42.54,7.14,2.34-1.87,1.82-6.65-.14-4.67-.14-4.67.45,1.85.92,3.85a21.2,21.2,0,0,1,.39,5.78c-.09,1.36,1.3,2,1.71,1.31s1.06-5.48.51-7.34-1.22-5-1.22-5,1.82,4.28,2.13,5.38-.2,5.31.76,6.08c.4.32,1.67-.11,1.46-6.1A33.34,33.34,0,0,0,121.1,197a10.58,10.58,0,0,1,1.46,3.17,29.42,29.42,0,0,1,.79,4.9c.14,1.62,1.55,1.41,1.55-1.45s-.48-6-1.28-7.54-2-10.42-4.36-13.69Z"/><path class="cls-5" d="M83.94,88.76s6.85,31.7,12.59,42.66c0,0,3.15,15.43,14.12,53.3,0,0,5.72,2.28,9.07-2.07,0,0-5.3-41.63-8.5-54.94,0,0-13.67-47.27-21.16-55.78A33.94,33.94,0,0,0,83.94,88.76Z"/><path class="cls-1" d="M91.73,36.08c1,2.11,2.11,4.29,3.17,6.6C98.27,50,91.31,51,91.31,51s3,5,.07,9-7.83,1.86-7.83,1.86S82.24,64.05,78,64.33c-6.21.39-8.87-2.12-8.87-2.12L62.37,61c-.79.48-2.94,2.13-8.15,2.76A14,14,0,0,1,45.75,62C44.58,65.2,35.51,65.18,33.84,60c-1.58-4.85.38-6.83.62-7.06-3.63,2.88-11.6-4.9-5.53-12.28,2.47-3,3.87-4.39,4.74-5.9-3.14.77-7.12-3-6.17-6.32,1.23-4.27,4.92-2.57,7.35-8.69,3.22-8.13,6.21-10.91,6.39-11.06h0A27.62,27.62,0,0,1,63.56.06C71.55.55,76.8,5,80,8.37a19.48,19.48,0,0,1,5.08,10.14q.21,1.15.48,2.28c1.52,2.68,4.51,7.45,7.41,8.9C96.9,31.66,95.66,36.89,91.73,36.08Z"/><path class="cls-7" d="M45.75,32.79s-3.7-3.61-6.65-1.26c-3.49,2.79.16,12.82,6.34,11.76Z"/><path class="cls-3" d="M43.83,42.81A1.77,1.77,0,1,1,42.07,41,1.77,1.77,0,0,1,43.83,42.81Z"/><path class="cls-8" d="M44.76,40a9.58,9.58,0,0,0-5.42-6s3.74,3.53,4,6.26a.69.69,0,0,0,.69.62h.08A.68.68,0,0,0,44.76,40Z"/><path class="cls-7" d="M76.94,32.79s3.69-3.61,6.65-1.26c3.48,2.79-.17,12.82-6.35,11.76Z"/><path class="cls-3" d="M83,42.81A1.77,1.77,0,1,1,81.26,41,1.77,1.77,0,0,1,83,42.81Z"/><path class="cls-8" d="M77.93,40a9.56,9.56,0,0,1,5.41-6s-3.74,3.53-4,6.26a.69.69,0,0,1-.69.62h-.09A.67.67,0,0,1,77.93,40Z"/><path class="cls-6" d="M69.44,54.23l-.26,4.85-.32,6.07s-1.21,2.29-6.65,2.29-6.56-1.56-6.56-1.56l-.22-2.7-.73-9Z"/><path class="cls-8" d="M69.44,54.23l-.26,4.85c-2.27,1.7-7.65,5-13.75,4.1l-.73-9Z"/><path class="cls-6" d="M81.18,29c-.05.58-.11,1.18-.17,1.78C79.73,43.22,75.88,59,62.13,59,48.7,59,43.41,44.11,41.68,32c-.12-.89-.23-1.75-.32-2.6A19.76,19.76,0,0,1,60.72,7.48h1A19.75,19.75,0,0,1,80.2,20.87a19.29,19.29,0,0,1,.74,2.83A19.62,19.62,0,0,1,81.18,29Z"/><path class="cls-1" d="M53.69,34.18a2.26,2.26,0,0,1-2.55-1.92A2.31,2.31,0,0,1,51.31,31c-1.84-.22-1.8-1.34-1.8-1.34.29.48,2.44.2,3.33.07h0l.26-.05h.12a2.25,2.25,0,0,1,.46,4.48Z"/><path class="cls-8" d="M62,53.56a8.5,8.5,0,0,1-3-.93.51.51,0,0,1-.18-.7.5.5,0,0,1,.69-.19,6.76,6.76,0,0,0,6.65-.11.52.52,0,0,1,.71.15.52.52,0,0,1-.16.71A7.07,7.07,0,0,1,62,53.56Z"/><path class="cls-8" d="M63.61,41H60.94a.55.55,0,0,1,0-1.09h2.67a.14.14,0,0,0,.1-.05.17.17,0,0,0,0-.11l-2.22-7.58a.55.55,0,0,1,1.06-.3l2.21,7.57a1.18,1.18,0,0,1-.2,1.07A1.19,1.19,0,0,1,63.61,41Z"/><path class="cls-1" d="M56.6,24.14h0a1,1,0,0,1-1,1.17c-2.06.06-6.36.45-8.44,2.66,0,0,.69-3.81,8.27-4.75A1,1,0,0,1,56.6,24.14Z"/><path class="cls-1" d="M67.31,23.91h0a1,1,0,0,0,1,1.15c2.06,0,6.37.26,8.51,2.4,0,0-.8-3.79-8.4-4.5A1.06,1.06,0,0,0,67.31,23.91Z"/><path class="cls-1" d="M69.79,33.89A2.24,2.24,0,0,0,72.34,32a2.17,2.17,0,0,0-.17-1.24C74,30.53,74,29.41,74,29.41c-.28.48-2.44.2-3.33.06h0l-.26,0h-.12a2.25,2.25,0,0,0-.46,4.47Z"/><path class="cls-9" d="M69.86,43.8a7.84,7.84,0,0,1-.1,1.29,7.19,7.19,0,0,1-14.14.18A7.6,7.6,0,0,1,55.49,44v-.06l14.37-.19Z"/><path class="cls-3" d="M69.86,43.8a7.84,7.84,0,0,1-.1,1.29l-14.14.18A7.6,7.6,0,0,1,55.49,44v-.06l14.37-.19Z"/><path class="cls-10" d="M68,48.7a7.19,7.19,0,0,1-10.56.14A7.88,7.88,0,0,1,68,48.7Z"/><path class="cls-1" d="M78.84,23.55C73.69,23.11,60.4,19,48.3,14.64c0,0,1.06,12.36-6.12,18.59a4,4,0,0,0-.5-1.28c-.12-.89-.23-1.75-.32-2.6A19.76,19.76,0,0,1,60.72,7.48h1A19.75,19.75,0,0,1,80.2,20.87a19.29,19.29,0,0,1,.74,2.83S80.18,23.67,78.84,23.55Z"/><path class="cls-1" d="M81.18,29c-.05.58-.11,1.18-.17,1.78-1.62-.93-2.06-4.78-2.17-7.2-.06-1.19,0-2,0-2s.09-.42,1.4-.65a19.29,19.29,0,0,1,.74,2.83A19.62,19.62,0,0,1,81.18,29Z"/><image width="266" height="177" transform="translate(44.73 89.66) scale(0.06 0.05)" xlink:href="../../../download%20(2).png"/></g></g></svg>